<?xml version="1.0" encoding="UTF-8"?>
<svg id="Layer_1" data-name="Layer 1" xmlns="http://www.w3.org/2000/svg" viewBox="0 0 200 200">
  <path d="M140.91,123.41v.04c-1.46,15.95-12.09,29.53-27.14,34.89-1.05.52-2.25.52-3.26,0-1.05-.67-1.65-1.87-1.61-3.11v-53.27c-.04-1.98,1.53-3.63,3.52-3.67h27.48v-17.74h-27.48c-1.95-.07-3.48-1.72-3.44-3.67v-17.74c.04-1.2.64-2.28,1.61-2.96,8.91-5.84,11.38-17.74,5.58-26.65-5.84-8.91-17.74-11.38-26.65-5.58-8.91,5.84-11.38,17.74-5.58,26.65,1.46,2.21,3.33,4.12,5.58,5.58,1.01.64,1.61,1.76,1.61,2.96v17.74c.04,1.95-1.5,3.59-3.44,3.67h-27.59v17.82h27.48c1.95.07,3.48,1.72,3.44,3.67v52.93c.07,1.24-.49,2.43-1.53,3.11-1.05.52-2.25.52-3.26,0-15.09-5.32-25.72-18.94-27.18-34.89l-17.82.22c1.68,32.45,29.39,57.39,61.84,55.7,30.1-1.57,54.13-25.6,55.7-55.7h-17.86ZM99.63,45.36c-3.22,0-5.84-2.62-5.84-5.84s2.62-5.84,5.84-5.84,5.84,2.62,5.84,5.84-2.62,5.84-5.84,5.84Z"/>
</svg>