<?xml version="1.0" encoding="UTF-8"?>
<svg id="Layer_1" data-name="Layer 1" xmlns="http://www.w3.org/2000/svg" viewBox="0 0 200 200">
  <g id="_14-cruise" data-name=" 14-cruise">
    <g id="glyph">
      <path d="M134.46,74.23h-15.85c-2.37,0-4.29-1.92-4.29-4.29s1.92-4.29,4.29-4.29h9.61l-1.84-2.53c-.81-1.11-2.1-1.77-3.47-1.77h-22.91c-1.81,0-3.42,1.13-4.04,2.83l-4.7,12.92h45.28l-2.08-2.86Z"/>
      <path d="M147.7,100.91c1.19-.6,2.51-.91,3.84-.91h13.6l-9.91-16.53c-.78-1.29-2.18-2.09-3.68-2.09H37.01c-1.76,0-3.34,1.07-3.99,2.7l-8.65,21.64h113.69l9.64-4.82ZM51.33,97.14h-5.01c-2.37,0-4.29-1.92-4.29-4.29s1.92-4.29,4.29-4.29h5.01c2.37,0,4.29,1.92,4.29,4.29s-1.92,4.29-4.29,4.29ZM73.87,97.14h-5.73c-2.37,0-4.29-1.92-4.29-4.29s1.92-4.29,4.29-4.29h5.73c2.37,0,4.29,1.92,4.29,4.29s-1.92,4.29-4.29,4.29ZM97.85,97.14h-6.8c-2.37,0-4.29-1.92-4.29-4.29s1.92-4.29,4.29-4.29h6.8c2.37,0,4.29,1.92,4.29,4.29s-1.92,4.29-4.29,4.29ZM120.04,97.14h-5.73c-2.37,0-4.29-1.92-4.29-4.29s1.92-4.29,4.29-4.29h5.73c2.37,0,4.29,1.92,4.29,4.29s-1.92,4.29-4.29,4.29ZM132.93,92.84c0-2.37,1.92-4.29,4.29-4.29h6.8c2.37,0,4.29,1.92,4.29,4.29s-1.92,4.29-4.29,4.29h-6.8c-2.37,0-4.29-1.92-4.29-4.29Z"/>
      <path d="M189.99,107.29c-.57-1.78-2.22-3-4.09-3h-34.36c-.67,0-1.32.16-1.92.45l-10.55,5.27H14.1c-2.37,0-4.29,1.92-4.29,4.29,0,.67.16,1.32.45,1.92l11.45,22.91c.73,1.45,2.21,2.37,3.84,2.37h130.27c1.63,0,3.11-.92,3.84-2.37,4.29-8.59,22.17-22.44,28.7-27.04,1.53-1.08,2.18-3.02,1.62-4.81Z"/>
      <rect x="49.89" y="71.37" width="20.04" height="5.73"/>
      <path d="M69.94,62.78c0-2.37-1.92-4.29-4.29-4.29h-11.45c-2.37,0-4.29,1.92-4.29,4.29h0v2.86h20.04v-2.86Z"/>
    </g>
  </g>
</svg>