<?xml version="1.0" encoding="UTF-8"?>
<svg id="Layer_1" data-name="Layer 1" xmlns="http://www.w3.org/2000/svg" viewBox="0 0 200 200">
  <path d="M100,29.55c15.49,0,30.35,6.15,41.31,17.11,10.96,10.96,17.11,25.81,17.11,41.31,0,44.67-37.8,82.47-58.42,82.47s-58.42-37.8-58.42-82.47c0-15.49,6.15-30.35,17.11-41.31,10.96-10.96,25.81-17.11,41.31-17.11h0ZM137.8,98.28c-4.34,0-8.63.91-12.59,2.68-3.96,1.76-7.51,4.34-10.41,7.57-2.9,3.22-5.09,7.02-6.43,11.15-1.34,4.13-1.79,8.49-1.33,12.8,4.59.49,9.22-.06,13.57-1.6s8.3-4.03,11.56-7.29c3.26-3.26,5.75-7.21,7.29-11.56s2.08-8.99,1.6-13.57c-1.08-.11-2.17-.17-3.26-.17h0ZM62.2,98.28c-1.1,0-2.19.05-3.26.17-.49,4.59.06,9.22,1.6,13.57,1.54,4.35,4.03,8.3,7.29,11.56,3.26,3.26,7.21,5.75,11.56,7.29s8.99,2.08,13.57,1.6c.46-4.31,0-8.67-1.33-12.8-1.34-4.13-3.53-7.92-6.43-11.15-2.9-3.22-6.45-5.8-10.41-7.57s-8.25-2.68-12.59-2.68h0Z"/>
</svg>