<?xml version="1.0" encoding="UTF-8"?>
<svg id="Layer_1" data-name="Layer 1" xmlns="http://www.w3.org/2000/svg" viewBox="0 0 200 200">
  <path d="M160.54,85.04c-3.4-1.96-7.03-3.53-10.79-4.69,6.26-25.73-9.48-53.01-34.86-60.56-1.9-.56-3.91.53-4.47,2.43-.47,1.56.18,3.24,1.56,4.09,14.14,8.46,22.16,28.16,12.32,43.21-10.81,17.94-37.92,17.8-48.83.04-9.71-15.02-1.65-34.75,12.32-43.21,1.56-.96,2.14-2.92,1.38-4.56-.76-1.65-2.61-2.48-4.33-1.96-25.75,7.84-40.98,34.34-34.77,60.53-25.36,7.42-40.9,34.77-34.75,60.4.6,4.73,7.56,4.05,7.21-.72.27-16.48,13.3-33.3,31.1-32.31,20.86.25,34.55,24.22,24.38,42.36l-.38.56c-8.21,15.53-29.13,17.85-43.14,10.12-1.59-.87-3.59-.42-4.65,1.05-1.07,1.47-.87,3.51.47,4.74,19.69,18.31,50.17,18.31,69.85,0,18.88,18.63,50.68,18.18,69.74.04,1.32-1.25,1.52-3.28.43-4.74-1.05-1.45-3.02-1.9-4.6-1.05-14.43,8.21-35.52,5.08-43.68-10.87-9.51-17.27,2.29-39.77,21.82-41.96,19.03-3.14,33.39,14.57,33.7,31.98-.02,1.85,1.39,3.4,3.24,3.6,1.81.18,3.48-1,3.89-2.77,5.16-21.88-4.65-44.55-24.14-55.74ZM100.05,123.38c-7.95,0-14.4-6.45-14.4-14.4.76-19.11,28.05-19.08,28.81,0,0,7.95-6.47,14.4-14.42,14.4Z"/>
</svg>