<?xml version="1.0" encoding="UTF-8"?>
<svg id="Layer_1" data-name="Layer 1" xmlns="http://www.w3.org/2000/svg" viewBox="0 0 200 200">
  <path d="M165.98,134.41l-48.64-89.41c-7.81-13.16-26.86-13.17-34.69,0l-48.64,89.41c-7.99,13.44,1.68,30.47,17.34,30.47h97.28c15.64,0,25.33-17.01,17.34-30.47ZM100,148.74c-4.45,0-8.07-3.62-8.07-8.07s3.62-8.07,8.07-8.07,8.07,3.62,8.07,8.07-3.62,8.07-8.07,8.07ZM108.07,116.47c0,4.45-3.62,8.07-8.07,8.07s-8.07-3.62-8.07-8.07v-40.34c0-4.45,3.62-8.07,8.07-8.07s8.07,3.62,8.07,8.07v40.34Z"/>
</svg>