<?xml version="1.0" encoding="UTF-8"?>
<svg id="Layer_1" data-name="Layer 1" xmlns="http://www.w3.org/2000/svg" viewBox="0 0 200 200">
  <path d="M143.67,172.18c-4.59,3.53-10.6,6.89-17.49,9.36-1.41.53-2.83-.88-2.47-2.3,1.06-4.42,1.77-9.01,1.77-13.78,0-24.55-17.31-45.4-23.32-52.11-1.24-1.24-3.18-1.24-4.24,0-6.01,6.54-23.32,27.38-23.32,52.11,0,5.48.88,10.95,2.3,15.9.35,1.41-.88,2.83-2.3,2.47-11.84-3.18-21.37-8.3-24.91-11.13-28.79-24.38-18.72-62.71-5.3-82.85,14.84-22.79,32.5-42.22,31.62-69.42-.18-3.18,3.36-5.3,6.18-3.89,21.18,10.67,36.06,33.15,41.08,52.13.39,1.48,2.3,1.84,3.23.63,4.24-5.54,6.06-12.93,6.21-19.54,0-3.71,4.77-5.65,7.42-2.83,20.14,21.73,51.23,87.97,3.53,125.24Z"/>
</svg>