<?xml version="1.0" encoding="UTF-8"?>
<svg id="Layer_1" data-name="Layer 1" xmlns="http://www.w3.org/2000/svg" viewBox="0 0 200 200">
  <path d="M178.66,160.41c-7.54,0-14.43-2.83-19.67-7.48-5.24,4.65-12.13,7.48-19.67,7.48s-14.43-2.83-19.67-7.48c-5.24,4.65-12.13,7.48-19.67,7.48s-14.43-2.83-19.67-7.48c-5.24,4.65-12.13,7.48-19.67,7.48s-14.43-2.83-19.67-7.48c-5.24,4.65-12.13,7.48-19.67,7.48-2.82,0-5.55-.4-8.14-1.14v23.02h173.6v-23.02c-2.59.74-5.32,1.14-8.14,1.14Z"/>
  <path d="M178.66,134.19c-7.54,0-14.43-2.83-19.67-7.48-5.24,4.65-12.13,7.48-19.67,7.48s-14.43-2.83-19.67-7.48c-5.24,4.65-12.13,7.48-19.67,7.48s-14.43-2.83-19.67-7.48c-5.24,4.65-12.13,7.48-19.67,7.48s-14.43-2.83-19.67-7.48c-5.24,4.65-12.13,7.48-19.67,7.48-2.82,0-5.55-.4-8.14-1.14v14.68c2.59.74,5.32,1.14,8.14,1.14,7.54,0,14.43-2.83,19.67-7.48,5.24,4.65,12.13,7.48,19.67,7.48s14.43-2.83,19.67-7.48c5.24,4.65,12.13,7.48,19.67,7.48s14.43-2.83,19.67-7.48c5.24,4.65,12.13,7.48,19.67,7.48s14.43-2.83,19.67-7.48c5.24,4.65,12.13,7.48,19.67,7.48,2.82,0,5.55-.4,8.14-1.14v-14.68c-2.59.74-5.32,1.14-8.14,1.14Z"/>
  <path d="M178.66,107.48c-7.54,0-14.43-2.83-19.67-7.48-5.24,4.65-12.13,7.48-19.67,7.48s-14.43-2.83-19.67-7.48c-5.24,4.65-12.13,7.48-19.67,7.48s-14.43-2.83-19.67-7.48c-5.24,4.65-12.13,7.48-19.67,7.48s-14.43-2.83-19.67-7.48c-5.24,4.65-12.13,7.48-19.67,7.48-2.82,0-5.55-.4-8.14-1.14v14.68c2.59.74,5.32,1.14,8.14,1.14,7.54,0,14.43-2.83,19.67-7.48,5.24,4.65,12.13,7.48,19.67,7.48s14.43-2.83,19.67-7.48c5.24,4.65,12.13,7.48,19.67,7.48s14.43-2.83,19.67-7.48c5.24,4.65,12.13,7.48,19.67,7.48s14.43-2.83,19.67-7.48c5.24,4.65,12.13,7.48,19.67,7.48,2.82,0,5.55-.4,8.14-1.14v-14.68c-2.59.74-5.32,1.14-8.14,1.14Z"/>
</svg>