<?xml version="1.0" encoding="UTF-8"?>
<svg id="Layer_1" data-name="Layer 1" xmlns="http://www.w3.org/2000/svg" viewBox="0 0 200 200">
  <path d="M81.68,158.49l2.12-.23-4.2-7.07c-7.12-6.47-13.24-13.97-18.14-22.22-.31,4.74.75,9.7,3.52,14.39l9.45,15.92c.63,1.06-.05,2.41-1.27,2.55l-5.64.62c-3.46.38-6.57,2.26-8.52,5.15l-1.31,1.95h9.81l2.8-4.16c2.6-3.87,6.75-6.38,11.38-6.88Z"/>
  <path d="M181.94,145.73h0c-.78-.85-1.81-1.44-2.94-1.67l-2.44-.51c-2.34-.49-4.63-1.13-6.87-1.87l-.43-4.12c-.17-1.69-2.45-2.09-3.2-.57l-1.38,2.83c-2.67-1.13-5.25-2.44-7.72-3.91l1.36-5.44c.41-1.65-1.59-2.81-2.81-1.62l-3.72,3.6c-1.94-1.44-3.81-2.96-5.57-4.61l3.2-5.05c.91-1.44-.63-3.16-2.16-2.42l-5.59,2.7c-2.8-3.25-5.26-6.79-7.33-10.59l.1-.23,8.65,3.53c1.57.64,3-1.18,2.01-2.55l-5.48-7.56,7.38-5.72c1.34-1.04.48-3.19-1.21-3.01l-9.29.97-1.27-9.26c-.23-1.68-2.52-2.01-3.21-.46l-3.75,8.41c-1.86-5.79-4.54-11.22-7.91-16.16v-1.66l9.34-.3c1.7-.06,2.26-2.3.79-3.15l-8.09-4.67,4.41-8.24c.8-1.5-.86-3.11-2.33-2.26l-8.09,4.67-4.93-7.93c-.9-1.44-3.12-.81-3.12.89v9.34h-.21c-3.6-2.91-7.53-5.46-11.76-7.54l-4.48-2.21-.02-.06,8.82-3.07c1.6-.56,1.47-2.87-.18-3.24l-9.11-2.05,1.76-9.18c.32-1.67-1.75-2.71-2.9-1.46l-6.33,6.87-7.07-6.11c-1.29-1.11-3.22.16-2.72,1.78l2.78,8.92-.27.09-10.52-5.18.81-6.99c.2-1.69-1.94-2.58-3-1.25l-4.09,5.14-2.24-1.1.6-5.17c.2-1.69-1.94-2.58-3-1.25l-3.19,4.01-2.97-1.19.33-2.83c.2-1.69-1.94-2.58-3-1.25l-1.81,2.28-3.61-1.44c-.97-.39-1.96-.67-2.97-.87l-1.39-1.02c-3-2.2-7.22-1.55-9.41,1.46l-1.2,1.65-5.84,2.5c-2.89,1.24-4.28,4.55-3.14,7.48l.35.91c.42,1.07,1.6,1.64,2.69,1.28l8.32-2.66c.46-.15.96-.08,1.36.17l3.6,2.65c1.15.72.97,2.45-.31,2.91l-7.19,2.61c-.98.36-1.19,1.66-.37,2.31l.75.59c.96.76,2.26.93,3.39.46l1.95-.82c1.3-.55,2.8-.33,3.89.55l16.95,13.63s-.09.86-.2,2.31c-.1,1.15-.17,2.3-.23,3.45-10.09.74-14.77,6.02-15.01,6.31-1.44,1.68-1.27,4.23.41,5.67.76.65,1.69.97,2.62.97,1.11,0,2.21-.46,3-1.38.15-.16,2.83-2.93,8.9-3.54.05,1.99.15,4.06.36,6.11-6.88,4.74-10.05,11.72-10.83,16.06-.39,2.16,1.05,4.22,3.21,4.62.25.05.49.07.73.07,1.88,0,3.56-1.34,3.93-3.26.06-.31.93-4.54,4.52-8.36,3.07,14.88,9.78,28.81,19.53,40.51-2.33-7.55-1.5-15.7,2.54-22.8,5.19-9.11,14.82-14.78,25.14-14.78,1.1,0,1.98.89,1.98,1.98s-.89,1.98-1.98,1.98c-.24,0-.48.02-.71.02-.29,0-.58.01-.87.03-.18.01-.35.03-.53.05-5.55.47-10.49,2.77-14.34,6.21,0,0,0,0-.01.01-.38.34-.75.69-1.11,1.05-.08.08-.15.16-.23.24-.29.3-.58.61-.85.92-.13.15-.26.31-.39.46-.22.26-.43.52-.64.79-.16.21-.32.43-.48.65-.17.23-.33.46-.49.69-.17.25-.33.5-.48.76-.14.22-.28.45-.42.68-.04.07-.09.13-.12.2-.04.07-.06.14-.1.21-.49.87-.93,1.77-1.31,2.69-.05.13-.1.26-.15.39-.36.91-.67,1.84-.93,2.79-.03.1-.05.21-.07.31-.76,3.03-.97,6.24-.51,9.46,0,0,0,.02,0,.03.15,1.03.37,2.06.65,3.09.02.07.04.13.06.2.28.98.62,1.95,1.03,2.91.05.11.1.21.14.32.41.93.87,1.86,1.41,2.77,0,.01.01.03.02.04l3.18,5.36s0,0,0,0l6.26,10.55c.63,1.06-.05,2.41-1.27,2.55l-.5.05-5.14.56c-1.17.13-2.31.43-3.37.88-2.01.84-3.67,2.32-4.99,4.05-.05.07-.11.14-.16.22l-1.31,1.95h35.21l.11-2.07c.15-2.92.92-5.78,2.25-8.39l1.6-3.14h0l9.63-18.87c.41-.8.76-1.61,1.06-2.44.09-.24.14-.47.22-.71.2-.59.39-1.19.53-1.79.06-.23.08-.47.13-.7.12-.61.24-1.22.31-1.84.02-.18.02-.36.03-.54.06-.67.11-1.34.1-2.01,0-.12-.02-.24-.02-.35-.02-.72-.06-1.44-.14-2.16-.01-.09-.03-.18-.05-.27-.1-.73-.22-1.45-.4-2.17-.04-.14-.09-.28-.13-.43-.17-.65-.36-1.3-.59-1.94-.18-.48-.4-.94-.6-1.4-.13-.29-.24-.6-.38-.89-.49-.98-.09-2.17.88-2.66.98-.49,2.17-.09,2.66.88,3.71,7.39,3.67,15.86-.09,23.22l-8.67,16.99,62.02-.95c4.73-.07,7.16-5.7,3.97-9.19ZM32.85,37.89c-1.58.57-3.26.16-4.42-.89.21-1.55,1.24-2.95,2.81-3.52,1.58-.57,3.26-.16,4.42.89-.21,1.55-1.24,2.95-2.81,3.52Z"/>
</svg>