<?xml version="1.0" encoding="UTF-8"?>
<svg id="Layer_1" data-name="Layer 1" xmlns="http://www.w3.org/2000/svg" viewBox="0 0 200 200">
  <g id="Skeleton">
    <path d="M136.74,72.56c.14-5.19,3.2-7.11,3.81-11.43,1.38-13.01-3.95-25.83-14.15-34.02-7.66-5.48-17.01-8.08-26.4-7.35-9.39-.74-18.74,1.87-26.4,7.35-10.2,8.19-15.54,21.01-14.15,34.02.61,4.32,3.67,6.24,3.81,11.43.18,6.62-6.05,8.53-5.44,14.42.4,3.58,2.54,6.74,5.71,8.44,4.54,2.16,11.34-4.02,14.25,11.57.34,1.94,1.53,3.62,3.25,4.58,5.81,3.13,12.37,4.61,18.97,4.26,6.59.34,13.16-1.13,18.97-4.26,1.71-.96,2.9-2.64,3.25-4.58,2.91-15.58,9.71-9.41,14.25-11.57,3.18-1.7,5.32-4.85,5.71-8.44.6-5.9-5.62-7.8-5.44-14.42h0ZM85.62,83.92c-2.08.38-8.62,1.29-12.24-2.2-4.17-4.03-3.03-12.77.15-15.66,2.99-2.72,8.21-2.02,11.55-1.52,3.71.11,7.12,2.04,9.12,5.17,1.75,3.12-.49,7.64-.68,8.06-1.36,3.3-4.37,5.64-7.91,6.16h0ZM106.5,102.86c-1.46.89-4.36.02-6.51-2.09-2.15,2.11-5.03,2.98-6.49,2.09-1.76-1.07-1.66-4.43-.99-6.05,1.35-3.29,3.02-6.45,4.98-9.42.75-1.06,1.46-.95,2.51-.21,1.05-.74,1.76-.85,2.51.21,1.96,2.97,3.63,6.13,4.98,9.42.67,1.62.77,4.98-.99,6.05h0ZM126.62,81.71c-3.62,3.49-10.16,2.58-12.24,2.2-3.54-.51-6.54-2.85-7.91-6.16-.19-.42-2.43-4.94-.68-8.06,2-3.13,5.41-5.06,9.12-5.17,3.35-.5,8.56-1.2,11.55,1.52,3.18,2.89,4.32,11.63.15,15.66h0Z"/>
    <path d="M80.4,147.23c4.6,2.14,8.73,4.07,12.47,5.79-21.03,9.71-23.46,10.93-25.57,16.21-1,3.14-2.46,6.11-4.34,8.82-3.03,3.06-7.96,3.08-11.02.05-.88-.88-1.55-1.95-1.93-3.14-.51-2.28-.49-4.65.06-6.92.23-.57-.05-1.22-.62-1.45,0,0,0,0,0,0-9.44-3.71-7.93-14.28-.77-16.16,4.37-1.13,9.18,2.17,13.78,2.41,3.18.15,9.89-2.2,17.94-5.61h0Z"/>
    <path d="M150.31,137.4c-6.24.42-7.57-2.97-13.96-2.7-2.74.09-5.44.69-7.96,1.78-3.15,1.48-6.12,2.91-8.94,4.22-4.04-1.78-8.37-3.77-12.56-5.73,5.26-2.55,10.13-4.96,14.11-6.86,3.45-1.67,6.65-3.82,9.5-6.38,3.42-4.45,2.17-10.19,7.66-13.39,3.98-2.35,13.78-1.13,11.43,10.81-.24,1.1.37,2.21,1.43,2.58,2.85,1.14,5.04,3.47,6,6.38.66,4.41-2.32,8.53-6.71,9.3h0Z"/>
    <path d="M150.54,166.59c-.57.23-.85.88-.63,1.45,0,0,0,0,0,0,.55,2.27.57,4.64.06,6.92-1.32,4.09-5.72,6.34-9.81,5.02-1.19-.38-2.26-1.04-3.14-1.93-1.87-2.71-3.33-5.68-4.34-8.82-2.95-7.41-6.65-6.9-61.09-32.76-2.52-1.09-5.22-1.69-7.96-1.78-6.38-.27-7.72,3.12-13.96,2.7-4.39-.76-7.37-4.89-6.71-9.3.96-2.91,3.15-5.25,6-6.38,1.06-.38,1.67-1.49,1.43-2.58-2.35-11.94,7.45-13.16,11.43-10.81,5.49,3.21,4.25,8.94,7.66,13.39,3.42,4.56,59.23,31.51,68.04,31.12,4.6-.24,9.41-3.53,13.78-2.41,7.16,1.87,8.67,12.44-.77,16.16Z"/>
  </g>
</svg>