<?xml version="1.0" encoding="UTF-8"?>
<svg id="Layer_1" data-name="Layer 1" xmlns="http://www.w3.org/2000/svg" viewBox="0 0 200 200">
  <path d="M99.81,87.1c-9.87,0-17.81,7.94-17.81,17.81s7.94,17.81,17.81,17.81,17.81-7.94,17.81-17.81-7.94-17.81-17.81-17.81Z"/>
  <path d="M139.88,35.21c-24.98-14.13-55.57-14.13-80.35,0-1.36.77-2.32,2.32-2.32,4.07,0,.77.19,1.55.58,2.13l22.46,38.72c.77,1.36,2.32,2.13,3.87,2.13.77,0,1.55-.19,2.13-.58,8.33-4.65,18.59-4.65,26.72,0,.58.39,1.36.58,2.13.58,1.55,0,3.1-.77,3.87-2.13l22.46-38.72c1.16-2.13.58-4.84-1.55-6.2Z"/>
  <path d="M175.89,100.46h-44.72c-2.52,0-4.45,1.94-4.45,4.45,0,9.49-5.23,18.39-13.36,23.23-2.13,1.16-2.9,4.07-1.55,6.2l22.46,38.72c1.36,2.13,4.07,2.9,6.2,1.55,24.78-14.33,40.27-41.04,40.27-69.7-.39-2.52-2.32-4.45-4.84-4.45Z"/>
  <path d="M86.45,128.15c-8.33-4.84-13.55-13.75-13.55-23.23,0-2.52-1.94-4.45-4.45-4.45H23.72c-2.52,0-4.45,1.94-4.45,4.45,0,28.65,15.29,55.18,40.08,69.7.77.39,1.55.77,2.32.77,1.55,0,3.1-.77,3.87-2.13l22.46-38.72c1.36-2.32.58-5.03-1.55-6.39Z"/>
</svg>