<?xml version="1.0" encoding="UTF-8"?>
<svg id="Layer_1" data-name="Layer 1" xmlns="http://www.w3.org/2000/svg" viewBox="0 0 200 200">
  <path d="M167.85,92.46h-1.28c-7.94,0-14.76-5.04-17.77-12.39l-.16-.37c-3.08-7.37-1.88-15.81,3.77-21.45l.9-.9c.7-.7,1.26-1.53,1.63-2.45.38-.91.57-1.89.57-2.88s-.19-1.97-.57-2.88c-.38-.91-.93-1.75-1.63-2.45s-1.53-1.26-2.45-1.63-1.89-.57-2.88-.57-1.97.19-2.88.57-1.75.93-2.45,1.63l-.9.9c-5.65,5.65-14.09,6.85-21.45,3.77l-.37-.16c-7.34-3-12.39-9.86-12.39-17.8v-.61c0-4.8-3.37-8.17-7.54-8.17s-7.54,3.37-7.54,7.54v.27c0,8.26-4.98,15.71-12.61,18.87l-.05.02c-3.73,1.55-7.84,1.95-11.8,1.16-3.96-.79-7.6-2.74-10.46-5.59l-.19-.19c-.7-.7-1.53-1.26-2.45-1.63-.91-.38-1.89-.57-2.88-.57s-1.97.19-2.88.57c-.91.38-1.75.93-2.45,1.63s-1.26,1.53-1.63,2.45c-.38.91-.57,1.89-.57,2.88s.19,1.97.57,2.88c.38.91.93,1.75,1.63,2.45l.27.27c2.83,2.83,4.76,6.44,5.54,10.37.78,3.93.38,8-1.15,11.71l-.2.48c-1.51,3.63-4.05,6.74-7.32,8.92-3.27,2.18-7.11,3.35-11.04,3.35h0c-4.8,0-8.17,3.37-8.17,7.54s3.37,7.54,7.54,7.54h.51c3.97,0,7.85,1.18,11.15,3.38,3.3,2.21,5.87,5.34,7.39,9.01l.16.37c1.53,3.7,1.93,7.78,1.15,11.71s-2.71,7.54-5.54,10.37l-.27.27c-1.41,1.41-2.21,3.33-2.21,5.33s.79,3.92,2.21,5.33,3.33,2.21,5.33,2.21,3.92-.79,5.33-2.21l.27-.27c2.83-2.83,6.44-4.76,10.37-5.54s8-.38,11.71,1.15l1.08.45c3.46,1.43,6.41,3.85,8.49,6.96s3.19,6.77,3.19,10.51v.64c0,4.81,3.37,8.18,7.54,8.18s7.54-3.38,7.54-7.54v-1.28c0-7.65,4.61-14.55,11.68-17.47l1.9-.78c3.46-1.43,7.26-1.81,10.94-1.08s7.04,2.54,9.69,5.19l.9.9c.7.7,1.53,1.26,2.45,1.63.91.38,1.89.57,2.88.57s1.97-.19,2.88-.57c.91-.38,1.75-.93,2.45-1.63s1.26-1.53,1.63-2.45c.38-.91.57-1.89.57-2.88s-.19-1.97-.57-2.88c-.38-.91-.93-1.75-1.63-2.45l-.9-.9c-5.65-5.65-6.85-14.09-3.77-21.45l.16-.37c3.01-7.35,9.87-12.39,17.81-12.39h.6c4.81,0,8.18-3.37,8.18-7.54s-3.37-7.54-7.54-7.54h0ZM69.85,107.54c-2,0-3.92-.79-5.33-2.21-1.41-1.41-2.21-3.33-2.21-5.33s.79-3.92,2.21-5.33c1.41-1.41,3.33-2.21,5.33-2.21s3.92.79,5.33,2.21c1.41,1.41,2.21,3.33,2.21,5.33s-.79,3.92-2.21,5.33c-1.41,1.41-3.33,2.21-5.33,2.21ZM107.54,133.92c-2,0-3.92-.79-5.33-2.21s-2.21-3.33-2.21-5.33.79-3.92,2.21-5.33,3.33-2.21,5.33-2.21,3.92.79,5.33,2.21,2.21,3.33,2.21,5.33-.79,3.92-2.21,5.33-3.33,2.21-5.33,2.21ZM115.08,100c-1.98,0-3.94-.39-5.77-1.15s-3.49-1.87-4.89-3.27-2.51-3.06-3.27-4.89-1.15-3.79-1.15-5.77c0-1.98.39-3.94,1.15-5.77s1.87-3.49,3.27-4.89,3.06-2.51,4.89-3.27c1.83-.76,3.79-1.15,5.77-1.15,4,0,7.83,1.59,10.66,4.42s4.42,6.67,4.41,10.66c0,4-1.59,7.83-4.42,10.66-2.83,2.83-6.66,4.42-10.66,4.41h0Z"/>
</svg>