<?xml version="1.0" encoding="UTF-8"?>
<svg id="Layer_1" data-name="Layer 1" xmlns="http://www.w3.org/2000/svg" viewBox="0 0 200 200">
  <circle cx="78.4" cy="110.98" r="6.81"/>
  <circle cx="60.26" cy="132.57" r="6.81"/>
  <circle cx="136.28" cy="90.55" r="6.81"/>
  <circle cx="130.6" cy="122.33" r="6.81"/>
  <path d="M172.51,163.75c-1.84-7.21-3.77-14.64-10.73-16.4-7.86-1.96-13.36.26-16.57,2.47-.91.62-1.67,1.25-2.33,1.9-.48-1.16-1.13-2.44-1.99-3.77-2.47-3.8-7.18-8.57-15.66-9.7-2.1-.28-4.06-.28-5.85-.14-.28-3.75-.88-9.53-1.45-15.15-.74-7.09-1.48-14.44-1.59-17.42.09-.03.17-.06.26-.06,6.21-1.79,9.79-7.01,9.56-13.93-.23-6.67.09-13.05.65-14.47.48-.51,2.04-1.93,2.64-2.5.48-.45.71-.65.82-.77.26-.26.88-.45,1.11-.51.57-.17,1.16-.34,1.79-.48,2.58-.65,5.79-1.48,7.46-4.37,1.48-2.55,1.82-5.19.96-8.09-.34-1.19-1.59-1.87-2.78-1.56l-10.5,2.87c-.57.14-1.28.34-1.99.77-.4.23-2.55,1.7-4.97,3.35.11-.28.23-.54.31-.82.45-1.16.96-2.41,1.65-4.17,1.13-.77,1.62-1.08,2.04-1.33.57-.34,1.05-.65,2.53-1.7,1.87-1.33,4.99-4.34,6.1-6.95,1.53-3.63.43-5.59-.85-7.86-.17-.28-.34-.6-.51-.94-.28-.54-.79-.94-1.39-1.11s-1.22-.09-1.76.23c-4.88,2.81-15.35,10.38-16.46,11.41-1.82,1.67-5.25,8.74-5.28,8.8-.48.99-.99,1.99-1.53,3.01l-.28-1.7c-.11-.6-.2-1.25-.14-1.67.09-.43.4-.96.74-1.53,1.45-2.36,3.06-4.65,4.77-6.84,2.87-3.69,4.2-7.86,3.63-11.49-.54-3.49-2.36-5.36-4.34-7.12-.51-.45-1.16-.65-1.84-.57-.65.09-1.25.48-1.62,1.05l-8.54,13.93c-1.7,2.72-4.8,7.6-5.85,9.02-.43.57-1.08,1.42-.37,9.19-1.08-1.08-2.27-2.1-3.66-3.01,1.56-3.58,2.87-8.31,3.26-11.29.6-4.4-1.28-8.71-4.91-11.24-.57-.4-1.28-.51-1.93-.31s-1.19.68-1.45,1.31c-1.39,3.4-2.87,7.18-4.28,10.81s-2.87,7.38-4.23,10.75c-.03.06-1.76,4.57.91,7.66,3.12,3.63,6.04,7.72,7.69,10.53l-3.83-.79c-1.22-1.99-2.53-3.89-3.97-5.73-.96-1.22-2.1-2.58-3.8-3.38-3.12-1.45-5.7-.65-8.29.4-.57.23-1.02.68-1.25,1.28-.23.57-.23,1.22.06,1.79.17.37,1.67,3.63,2.87,5.33,3.04,4.31,4.99,9.53,5.53,12.57.2,1.13.6,1.39,5.31,4.43,2.47,1.59,5.62,3.6,8.17,5.19,2.24,1.42,4.54,2.87,4.99,3.18.57.51.96,1.45,1.05,2.53.11,1.25-.14,2.61-.4,4.03-.26,1.48-.6,5.85-1.08,12.85-.26,3.43-.48,6.98-.71,9.45-1.36-.14-2.87-.17-4.45-.09-11.01.65-16.57,6.7-19.29,11.66-1.11,1.99-1.82,3.94-2.3,5.65-3.58-3.23-9.45-6.21-17.25-4.8-8.65,1.59-14.67,10.64-17.48,15.92-.37.71-.34,1.56.06,2.24s1.13,1.11,1.96,1.11h140.73c.71,0,1.36-.31,1.79-.88.34-.57.51-1.31.31-1.99h0ZM106.77,104.37c-.11,1.19-1.11,2.07-2.27,2.07h-.2c-1.25-.11-2.16-1.22-2.04-2.47.4-4.31-.85-7.66-3.72-9.96-2.24-1.82-4.68-2.36-4.71-2.36-1.22-.26-2.01-1.45-1.76-2.67s1.45-2.01,2.67-1.76c.14.03,3.4.71,6.5,3.15,2.89,2.24,6.21,6.53,5.53,13.99h0Z"/>
</svg>