{
  "asset": {
    "version": "2.0",
    "generator": "Maxon Cinema 4D 2024.5.1 (#200000219)"
  },
  "scenes": [
    {
      "nodes": [
        0
      ]
    }
  ],
  "nodes": [
    {
      "name": "jet",
      "mesh": 0,
      "translation": [
        0.0,
        0.0,
        0.0
      ],
      "rotation": [
        0.0,
        0.0,
        0.0,
        -1.0
      ],
      "scale": [
        1.0,
        1.0,
        1.0
      ]
    }
  ],
  "meshes": [
    {
      "name": "jet",
      "primitives": [
        {
          "attributes": {
            "POSITION": 1,
            "NORMAL": 2,
            "TEXCOORD_0": 3
          },
          "indices": 0
        }
      ]
    }
  ],
  "accessors": [
    {
      "bufferView": 0,
      "type": "SCALAR",
      "componentType": 5123,
      "count": 666,
      "byteOffset": 0,
      "min": [
        0
      ],
      "max": [
        291
      ]
    },
    {
      "bufferView": 1,
      "type": "VEC3",
      "componentType": 5126,
      "count": 292,
      "byteOffset": 0,
      "min": [
        -4.5,
        -0.48746395111083984,
        -6.5122504234313965
      ],
      "max": [
        4.5,
        1.8409922122955322,
        2.731558322906494
      ]
    },
    {
      "bufferView": 1,
      "type": "VEC3",
      "componentType": 5126,
      "count": 292,
      "byteOffset": 12,
      "min": [
        -1.0,
        -1.0,
        -1.0
      ],
      "max": [
        1.0,
        1.0,
        1.0
      ]
    },
    {
      "bufferView": 1,
      "type": "VEC2",
      "componentType": 5126,
      "count": 292,
      "byteOffset": 24,
      "min": [
        0.0,
        0.0
      ],
      "max": [
        1.0,
        1.0
      ]
    }
  ],
  "bufferViews": [
    {
      "buffer": 0,
      "byteOffset": 0,
      "byteLength": 1332,
      "target": 34963
    },
    {
      "buffer": 0,
      "byteOffset": 1332,
      "byteLength": 9344,
      "target": 34962,
      "byteStride": 32
    }
  ],
  "buffers": [
    {
      "uri": "data:application/octet-stream;base64,",
      "byteLength": 10676
    }
  ]
}