<svg id="Layer_1" enable-background="new 0 0 512 512" height="512" viewBox="0 0 512 512" width="512" xmlns="http://www.w3.org/2000/svg"><g><path d="m160 344.44v-280.44c0-35.29-28.71-64-64-64s-64 28.71-64 64v280.44c-20.43 18.2-32 43.85-32 71.56 0 52.93 43.07 96 96 96s96-43.07 96-96c0-27.71-11.57-53.36-32-71.56zm-103.932 73.92c-.94-16.281 7.923-30.621 21.216-37.694 1.65-.878 2.716-2.558 2.716-4.427v-199.79c0-8.618 6.626-16.03 15.235-16.431 9.188-.428 16.765 6.888 16.765 15.982v200.242c0 1.862 1.054 3.541 2.698 4.415 12.657 6.726 21.302 20.038 21.302 35.343 0 23.009-19.516 41.535-42.868 39.899-19.89-1.393-35.914-17.633-37.064-37.539z"/><circle cx="352" cy="160" r="80"/><path d="m352 53c8.836 0 16-7.164 16-16v-21c0-8.836-7.164-16-16-16s-16 7.164-16 16v21c0 8.836 7.164 16 16 16z"/><path d="m352 267c-8.836 0-16 7.164-16 16v21c0 8.836 7.164 16 16 16s16-7.164 16-16v-21c0-8.836-7.164-16-16-16z"/><path d="m245 160c0-8.836-7.164-16-16-16h-21c-8.836 0-16 7.164-16 16s7.164 16 16 16h21c8.836 0 16-7.164 16-16z"/><path d="m496 144h-21c-8.836 0-16 7.164-16 16s7.164 16 16 16h21c8.836 0 16-7.164 16-16s-7.164-16-16-16z"/><path d="m253.409 84.036c6.247 6.248 16.379 6.249 22.627 0 6.249-6.248 6.249-16.379 0-22.627l-14.546-14.546c-6.248-6.249-16.379-6.249-22.627 0-6.249 6.248-6.249 16.379 0 22.627z"/><path d="m450.591 235.964c-6.248-6.249-16.379-6.249-22.627 0-6.249 6.248-6.249 16.379 0 22.627l14.546 14.546c3.124 3.125 7.219 4.687 11.313 4.687 14.126 0 21.421-17.206 11.313-27.313z"/><path d="m253.409 235.964-14.546 14.546c-6.249 6.248-6.249 16.379 0 22.627 6.247 6.248 16.379 6.249 22.627 0l14.546-14.546c6.249-6.248 6.249-16.379 0-22.627-6.248-6.249-16.379-6.249-22.627 0z"/><path d="m439.277 88.723c4.095 0 8.189-1.562 11.313-4.687l14.546-14.546c6.249-6.248 6.249-16.379 0-22.627-6.248-6.249-16.379-6.249-22.627 0l-14.546 14.546c-10.109 10.109-2.811 27.314 11.314 27.314z"/></g></svg>