<svg id="Layer_1" enable-background="new 0 0 512 512" height="512" viewBox="0 0 512 512" width="512" xmlns="http://www.w3.org/2000/svg"><g><path d="m160 344.44v-280.44c0-35.29-28.71-64-64-64s-64 28.71-64 64v280.44c-20.43 18.2-32 43.85-32 71.56 0 52.93 43.07 96 96 96s96-43.07 96-96c0-27.71-11.57-53.36-32-71.56zm-103.932 73.92c-.941-16.281 7.923-30.621 21.216-37.694 1.65-.878 2.716-2.558 2.716-4.427v-47.79c0-8.618 6.626-16.03 15.235-16.431 9.188-.428 16.765 6.888 16.765 15.982v48.242c0 1.862 1.054 3.541 2.698 4.415 12.657 6.726 21.302 20.038 21.302 35.343 0 23.009-19.516 41.535-42.867 39.899-19.89-1.393-35.915-17.633-37.065-37.539z"/><path d="m496 144h-25.37l12.68-12.69c6.25-6.25 6.25-16.38 0-22.62-6.24-6.25-16.37-6.25-22.62 0l-35.32 35.31h-19.71c-2.54-8.5-7.05-16.15-13-22.44l9.88-17.1 48.24-12.93c8.54-2.29 13.6-11.06 11.32-19.6-2.29-8.53-11.06-13.6-19.6-11.31l-17.33 4.64 12.69-21.97c4.41-7.65 1.79-17.44-5.86-21.86-7.65-4.41-17.44-1.79-21.86 5.86l-12.68 21.97-4.65-17.33c-2.28-8.53-11.05-13.6-19.59-11.31s-13.6 11.06-11.32 19.6l12.93 48.23-9.86 17.08c-8.589-2.039-17.345-2.041-25.94 0l-9.86-17.08 12.93-48.23c2.28-8.54-2.78-17.31-11.32-19.6-8.53-2.29-17.31 2.78-19.59 11.32l-4.65 17.32-12.68-21.97c-4.42-7.65-14.21-10.27-21.86-5.86-7.65 4.42-10.27 14.21-5.86 21.86l12.69 21.98-17.33-4.65c-8.54-2.29-17.31 2.78-19.6 11.32-2.28 8.53 2.78 17.3 11.32 19.59l48.24 12.93 9.88 17.1c-5.95 6.29-10.46 13.94-13 22.44h-19.71l-35.32-35.31c-6.24-6.25-16.38-6.25-22.62 0-6.25 6.24-6.25 16.38 0 22.62l12.68 12.69h-25.37c-8.84 0-16 7.16-16 16s7.16 16 16 16h25.37l-12.68 12.69c-10.109 10.093-2.807 27.31 11.31 27.31 4.09 0 8.19-1.56 11.31-4.69l35.32-35.31h19.71c2.54 8.5 7.05 16.15 13 22.44l-9.88 17.1-48.24 12.93c-8.54 2.29-13.6 11.06-11.32 19.59 2.29 8.54 11.06 13.6 19.6 11.32l17.33-4.65-12.69 21.98c-6.172 10.707 1.641 24 13.85 24 5.52 0 10.9-2.87 13.87-8l12.68-21.97 4.65 17.32c1.91 7.15 8.38 11.87 15.44 11.87 10.498 0 18.189-9.967 15.47-20.15l-12.93-48.23 9.86-17.08c8.59 2.039 17.345 2.041 25.94 0l9.86 17.08-12.93 48.23c-2.719 10.184 4.972 20.15 15.47 20.15 7.06 0 13.53-4.72 15.44-11.86l4.65-17.33 12.68 21.97c2.97 5.13 8.34 8 13.87 8 12.213 0 20.021-13.296 13.85-24l-12.69-21.98 17.33 4.65c8.53 2.29 17.31-2.78 19.6-11.31 2.28-8.54-2.78-17.31-11.32-19.6l-48.24-12.93-9.88-17.1c5.95-6.29 10.46-13.94 13-22.44h19.71l35.32 35.31c3.12 3.13 7.22 4.69 11.31 4.69 14.117 0 21.419-17.217 11.31-27.31l-12.68-12.69h25.37c8.84 0 16-7.16 16-16s-7.16-16-16-16zm-144 40c-13.23 0-24-10.77-24-24s10.77-24 24-24 24 10.77 24 24-10.77 24-24 24z"/></g></svg>