<svg id="Layer_1" enable-background="new 0 0 513 513" height="512" viewBox="0 0 513 513" width="512" xmlns="http://www.w3.org/2000/svg"><g><path d="m440.49 162.46c1.292-63.268-60.259-112.244-123.37-93.46-19.108-40.449-60.07-69-108.62-69-64.68 0-117.58 51.44-119.92 115.56-51.03 11.108-88.08 56.453-88.08 109.44 0 61.76 50.24 112 112 112h312c48.52 0 88-39.48 88-88 0-43.06-31.09-79-72.01-86.54zm-335.99 94.54c0-8.84 7.16-16 16-16h160c17.677 0 32-14.307 32-32 0-28.443-34.608-42.676-54.62-22.63-6.24 6.25-16.37 6.26-22.63.01-6.25-6.25-6.25-16.38-.01-22.63 12.08-12.09 28.15-18.75 45.26-18.75 35.29 0 64 28.71 64 64 0 35.355-28.593 64-64 64h-160c-8.84 0-16-7.16-16-16z"/><path d="m376.5 369h-296c-8.837 0-16 7.164-16 16s7.163 16 16 16h296c22.195 0 40 17.987 40 40 0 35.76-43.299 53.249-68.291 28.281-6.252-6.245-16.382-6.241-22.628.011-6.245 6.251-6.24 16.382.011 22.627 13.607 13.594 31.686 21.081 50.908 21.081 39.701 0 72-32.299 72-72 0-39.805-32.223-72-72-72z"/><path d="m272.5 433h-144c-8.837 0-16 7.164-16 16s7.163 16 16 16h144c8.837 0 16-7.164 16-16s-7.163-16-16-16z"/><path d="m32.5 369h-16c-8.837 0-16 7.164-16 16s7.163 16 16 16h16c8.837 0 16-7.164 16-16s-7.163-16-16-16z"/></g></svg>