<svg id="Layer_1" enable-background="new 0 0 513.331 513.331" height="512" viewBox="0 0 513.331 513.331" width="512" xmlns="http://www.w3.org/2000/svg"><g><path d="m5.376 191.5c-3.184 5.163-4.71 10.69-4.71 16.5 0 49.369 114.521 64.554 163.41 68.7 14.713 11.206 42.214 27.922 60.574 64.564.843 1.682 2.574 2.736 4.455 2.736h67.112c8.618 0 16.03 6.626 16.431 15.234.428 9.188-6.888 16.766-15.982 16.766h-87.551c-8.618 0-16.03 6.626-16.431 15.234-.428 9.188 6.888 16.766 15.982 16.766h32.12c1.121 25.761-4.538 57.632-12.49 77.86-6.366 7.708-5.244 21.517 5.91 26.24 5.056 2.128 11.369 1.558 16.15-2.19 11.06-3.37 35.47-12.23 59.9-30.53 30.3-22.7 66.41-64.61 66.41-135.38h23.551c8.618 0 16.03-6.626 16.431-15.235.428-9.188-6.888-16.765-15.982-16.765h-71.551c-8.618 0-16.031-6.626-16.431-15.235-.428-9.188 6.888-16.765 15.982-16.765h34.012c3.308 0 5.711-3.157 4.816-6.341-3.985-14.188-6.828-26.734-6.828-57.659 0-7.54 1.24-14.45 3.47-20.99 30.984-3.039 68.87-8.465 98.5-17.56 21.48-6.6 50.03-18.07 50.03-41.45 0-18.975-19.187-30.137-37.459-37.159-2.408-.925-5.11.162-6.253 2.474-3.151 6.371-6.816 12.798-10.671 18.888-1.725 2.726-.492 6.334 2.547 7.418 9.689 3.458 14.94 6.465 17.677 8.429-5.39 3.82-18.44 9.82-43.35 15.64-52.457 12.275-123.835 16.288-178.032 16.31-8.63.004-16.049-6.632-16.441-15.253-.417-9.18 6.895-16.747 15.983-16.747 49.592 0 109.112-3.226 158.095-12.118 1.206-.219 2.289-.876 3.043-1.842 24.57-31.496 38.844-63.874 38.862-105.96.004-8.843-7.157-16.08-16-16.08h-368c-8.837 0-16 7.171-16 16.008 0 9.226 0 18.239.084 27.051.024 2.74 2.26 4.941 5 4.941h178.466c8.618 0 16.03 6.626 16.431 15.234.427 9.189-6.888 16.766-15.982 16.766h-215.551c-8.618 0-16.03 6.626-16.431 15.234-.428 9.189 6.888 16.766 15.982 16.766h36.16c4.42 31.709 13.177 59.462 29.601 86.569.702 1.159 1.848 1.985 3.169 2.286 45.576 10.376 100.315 14.12 146.61 14.145 8.616.005 16.029 6.606 16.441 15.212.441 9.199-6.88 16.788-15.981 16.788-28.72 0-56.74-1.32-83.27-3.92-38.058-3.709-37.254-5.657-35.55-3.79-18.282-2.955-37.793-7.057-55.44-12.9-24.29-8.1-32.36-15.82-33.64-18.4.93-1.967 5.06-6.022 14.918-10.88 2.428-1.196 3.462-4.109 2.336-6.571-3.008-6.579-5.677-13.207-7.922-19.551-1.032-2.917-4.437-4.189-7.141-2.686-8.296 4.61-24.012 14.168-29.581 23.198z"/></g></svg>