<svg id="Layer_1" enable-background="new 0 0 512 512" height="512" viewBox="0 0 512 512" width="512" xmlns="http://www.w3.org/2000/svg"><g><path d="m152.227 60.622-104.227 69.478v-70.41c10.149-5.887 16.796-17.183 15.923-29.929-1.08-15.775-13.844-28.568-29.617-29.68-18.677-1.316-34.306 13.506-34.306 31.919 0 11.82 6.45 22.15 16 27.69v435.861c0 8.618 6.626 16.031 15.235 16.431 9.188.428 16.765-6.888 16.765-15.982v-306.1l104.227 69.478c3.323 2.215 7.773-.167 7.773-4.16v-26.442c0-1.672-.836-3.233-2.227-4.16l-96.933-64.616 96.933-64.616c1.391-.927 2.227-2.489 2.227-4.16v-26.442c0-3.993-4.451-6.375-7.773-4.16zm39.773-4.596v207.948c0 3.057 2.719 5.398 5.742 4.945l30-4.5c2.448-.367 4.258-2.47 4.258-4.945v-198.948c0-2.475-1.811-4.578-4.258-4.945l-30-4.5c-3.023-.453-5.742 1.888-5.742 4.945zm72 10.8v186.348c0 3.057 2.719 5.398 5.742 4.945l30-4.5c2.448-.367 4.258-2.47 4.258-4.945v-177.348c0-2.475-1.811-4.578-4.258-4.945l-30-4.5c-3.023-.453-5.742 1.888-5.742 4.945zm72 10.8v164.748c0 3.057 2.719 5.398 5.742 4.945l30-4.5c2.448-.367 4.258-2.47 4.258-4.945v-155.748c0-2.475-1.811-4.578-4.258-4.945l-30-4.5c-3.023-.453-5.742 1.888-5.742 4.945zm72 10.8v143.148c0 3.057 2.719 5.398 5.742 4.945l30-4.5c2.448-.367 4.258-2.47 4.258-4.945v-134.148c0-2.475-1.811-4.578-4.258-4.945l-30-4.5c-3.023-.453-5.742 1.888-5.742 4.945zm90.37 7.754-12.627-1.897c-3.024-.454-5.743 1.887-5.743 4.944v121.545c0 3.057 2.719 5.399 5.743 4.945l12.627-1.897c7.84-1.17 13.63-7.9 13.63-15.82v-96c0-7.92-5.79-14.65-13.63-15.82z"/></g></svg>