<?xml version="1.0" encoding="UTF-8"?>
<svg id="Layer_1" data-name="Layer 1" xmlns="http://www.w3.org/2000/svg" viewBox="0 0 200 200">
  <path d="M123.78,57.79c6.63,3.9,15.17,1.68,19.06-4.95,3.9-6.63,1.69-15.17-4.94-19.07-6.64-3.9-15.17-1.68-19.07,4.95-3.9,6.63-1.69,15.17,4.95,19.07Z"/>
  <path d="M146.54,105.76c-.76,0-1.52.06-2.27.11l-4.56-22.64,1.49-.56c3.37-1.26,5.09-5.02,3.83-8.39-1.26-3.38-5.04-5.09-8.39-3.82l-16.38,6.13-.73-5.96c1.99-4.17,1.75-9.42-1.51-13.12-6.71-7.62-14.9-3.95-17.45-1.89l-33.79,27.37h0c-1.05.92-1.93,2.06-2.49,3.44-.69,1.71-.82,3.5-.49,5.18-2.69.21-4.82,2.39-4.82,5.14s2.32,5.2,5.2,5.21l-2.15,5.03c-2.73-.78-5.59-1.22-8.56-1.22-17.2,0-31.2,13.99-31.2,31.19s14,31.19,31.2,31.19,31.19-13.99,31.19-31.19c0-11.45-6.22-21.46-15.45-26.88l3.46-8.11h5.62l19.06,7.73-10.18,16.69c-2.62,4.3-1.26,9.92,3.04,12.55,1.48.9,3.12,1.34,4.74,1.34,3.08,0,6.08-1.56,7.8-4.38l9.28-15.21,6.03,3.64c-1.72,3.87-2.7,8.13-2.7,12.63,0,17.2,13.99,31.19,31.19,31.19s31.19-13.99,31.19-31.19-13.99-31.19-31.19-31.19ZM53.46,160.33c-12.89,0-23.37-10.48-23.37-23.37s10.49-23.37,23.37-23.37c1.88,0,3.68.28,5.43.7l-6.47,15.14c-3.72.51-6.59,3.67-6.59,7.52,0,4.21,3.42,7.63,7.63,7.63,2.77,0,5.17-1.5,6.51-3.72h16.46c-1.87,11.02-11.42,19.46-22.97,19.46ZM76.43,133.04h-16.46c-.11-.19-.22-.37-.35-.55l6.47-15.14c5.39,3.49,9.22,9.12,10.34,15.69ZM116.1,114.01l2.42-3.97c1.4-2.29,1.72-5.07.88-7.61-.84-2.54-2.76-4.59-5.24-5.6l-16.67-6.76,10.26-8.31.57,4.64c.24,1.98,1.38,3.74,3.09,4.78,1.03.63,2.21.94,3.38.94.77,0,1.54-.14,2.28-.41l15.22-5.69,4.31,21.4c-5.78,1.95-10.79,5.54-14.5,10.22l-6.01-3.63ZM140.95,129.01l-12.02-7.25c2.49-2.88,5.62-5.16,9.23-6.56l2.78,13.81ZM146.54,160.33c-12.89,0-23.37-10.48-23.37-23.37,0-3.02.62-5.88,1.67-8.53l14.08,8.5s0,.02,0,.03c0,4.21,3.42,7.63,7.62,7.63s7.63-3.42,7.63-7.63c0-3.31-2.12-6.1-5.08-7.16l-3.25-16.14c.24,0,.46-.07.7-.07,12.89,0,23.37,10.48,23.37,23.37,0,12.89-10.48,23.37-23.37,23.37Z"/>
</svg>