<?xml version="1.0" encoding="UTF-8"?>
<svg id="Layer_1" data-name="Layer 1" xmlns="http://www.w3.org/2000/svg" viewBox="0 0 200 200">
  <path d="M42.61,139.67c11.35-4.17,23.9-3.58,34.8,1.64.65.32,1.41.34,2.08.05.68-.27,1.2-.82,1.44-1.51,3.12-8.7,5.28-17.71,6.44-26.88,2.76-23.34-.69-47-10-68.58-.59-1.3-2.12-1.87-3.42-1.28-.88.4-1.46,1.26-1.51,2.23-.67,32.89-12.16,64.64-32.7,90.33-.86,1.13-.64,2.75.49,3.61.68.52,1.57.67,2.39.39h0Z"/>
  <path d="M168.23,146.29c-.51-.6-1.27-.93-2.05-.9l-132.55,5.23c-.87.04-1.66.51-2.1,1.26-.45.75-.49,1.68-.1,2.46l8.03,16.06c.44.87,1.33,1.42,2.31,1.41h99.59c5.77-.2,11.36-2.1,16.06-5.46,5.86-4.36,9.91-10.72,11.39-17.88.15-.77-.05-1.58-.56-2.18h0Z"/>
  <path d="M92.65,69.93c5.47,22.86,4.16,46.82-3.77,68.94-.44,1.36.3,2.82,1.66,3.26.64.21,1.33.16,1.93-.13,12.5-6.35,26.25-9.86,40.27-10.26,8.94-.26,17.87.76,26.52,3.03,1.39.35,2.79-.5,3.14-1.89.07-.28.09-.57.07-.86-4.41-49.81-42.43-90.92-83.74-103.72-1.36-.42-2.81.35-3.23,1.71-.22.73-.11,1.52.3,2.16,7.81,11.49,13.51,24.27,16.85,37.75h0Z"/>
</svg>