<?xml version="1.0" encoding="UTF-8"?>
<svg id="Layer_1" data-name="Layer 1" xmlns="http://www.w3.org/2000/svg" viewBox="0 0 200 200">
  <path d="M150.79,122.92c-7.32,0-13.28,5.96-13.28,13.28s5.96,13.28,13.28,13.28,13.28-5.96,13.28-13.28-5.96-13.28-13.28-13.28ZM150.79,140.11c-2.15,0-3.91-1.75-3.91-3.91s1.75-3.91,3.91-3.91,3.91,1.75,3.91,3.91-1.75,3.91-3.91,3.91Z"/>
  <path d="M53.9,122.92c-7.32,0-13.28,5.96-13.28,13.28s5.96,13.28,13.28,13.28,13.28-5.96,13.28-13.28-5.96-13.28-13.28-13.28ZM53.9,140.11c-2.15,0-3.91-1.75-3.91-3.91s1.75-3.91,3.91-3.91,3.91,1.75,3.91,3.91-1.75,3.91-3.91,3.91Z"/>
  <path d="M177.16,96.72l-8.92-37.35c-.5-2.42-2.63-4.16-5.1-4.16H24.99c-1.73,0-3.13,1.4-3.13,3.13v73.43c0,1.73,1.4,3.13,3.13,3.13h8c1.58,0,2.92-1.17,3.13-2.73,1.26-9.35,8.74-15.14,17.78-15.14s16.52,5.79,17.78,15.14c.21,1.56,1.55,2.73,3.13,2.73h39.25s0,0,.02,0h15.8c1.58,0,2.92-1.17,3.13-2.73,1.26-9.35,8.74-15.14,17.78-15.14s16.52,5.79,17.78,15.14c.21,1.56,1.55,2.73,3.13,2.73h3.31c1.73,0,3.13-1.4,3.13-3.13v-25.79c0-3.11-.33-6.21-.97-9.26ZM53.27,89.25c0,1.91-1.55,3.46-3.46,3.46h-17.94c-1.91,0-3.46-1.55-3.46-3.46v-22.47c0-1.91,1.55-3.46,3.46-3.46h17.94c1.91,0,3.46,1.55,3.46,3.46v22.47ZM81.74,89.25c0,1.91-1.55,3.46-3.46,3.46h-17.94c-1.91,0-3.46-1.55-3.46-3.46v-22.47c0-1.91,1.55-3.46,3.46-3.46h17.94c1.91,0,3.46,1.55,3.46,3.46v22.47ZM110.22,89.25c0,1.91-1.55,3.46-3.46,3.46h-17.94c-1.91,0-3.46-1.55-3.46-3.46v-22.47c0-1.91,1.55-3.46,3.46-3.46h17.94c1.91,0,3.46,1.55,3.46,3.46v22.47ZM138.7,89.25c0,1.91-1.55,3.46-3.46,3.46h-17.94c-1.91,0-3.46-1.55-3.46-3.46v-22.47c0-1.91,1.55-3.46,3.46-3.46h17.94c1.91,0,3.46,1.55,3.46,3.46v22.47ZM163.16,92.71h-17.38c-1.91,0-3.46-1.55-3.46-3.46v-22.47c0-1.91,1.55-3.46,3.46-3.46h13.29c1.71,0,3.17,1.25,3.42,2.95l4.08,22.47c.31,2.09-1.31,3.98-3.42,3.98Z"/>
</svg>