<?xml version="1.0" encoding="UTF-8"?>
<svg id="Layer_1" data-name="Layer 1" xmlns="http://www.w3.org/2000/svg" viewBox="0 0 200 200">
  <path d="M16.74,103.39s8.79,17.14,9.26,19.3c.05,0,.1,0,.15,0,2.01,0,3.77-.62,4.78-1.54.49-.45,1.27-.45,1.76,0,1,.93,2.77,1.54,4.78,1.54s3.77-.62,4.78-1.54c.49-.45,1.27-.45,1.76,0,1,.93,2.77,1.54,4.78,1.54s3.77-.62,4.78-1.54c.49-.45,1.27-.45,1.76,0,1,.93,2.77,1.54,4.78,1.54s3.77-.62,4.78-1.54c.49-.45,1.27-.45,1.76,0,1,.93,2.77,1.54,4.78,1.54s3.77-.62,4.78-1.54c.49-.45,1.27-.45,1.76,0,1,.93,2.77,1.54,4.78,1.54s3.77-.62,4.78-1.54c.49-.45,1.27-.45,1.76,0,1,.93,2.77,1.54,4.78,1.54s3.77-.62,4.78-1.54c.49-.45,1.27-.45,1.76,0,1,.93,2.77,1.54,4.78,1.54s3.77-.62,4.78-1.54c.49-.45,1.27-.45,1.76,0,1,.93,2.77,1.54,4.78,1.54s3.77-.62,4.78-1.54c.49-.45,1.27-.45,1.76,0,1,.93,2.77,1.54,4.78,1.54s3.77-.62,4.78-1.54c.49-.45,1.27-.45,1.76,0,1,.93,2.77,1.54,4.78,1.54s3.77-.62,4.78-1.54c.49-.45,1.27-.45,1.76,0,1,.93,2.77,1.54,4.78,1.54s3.77-.62,4.78-1.54c.49-.45,1.27-.45,1.76,0,1,.93,2.77,1.54,4.78,1.54s3.77-.62,4.78-1.54c.49-.45,1.27-.45,1.76,0,1,.93,2.77,1.54,4.78,1.54s3.77-.62,4.78-1.54c.49-.45,1.27-.45,1.76,0,1,.93,2.77,1.54,4.78,1.54.21,0,.43-.01.63-.02l.77-19.28H16.74Z"/>
  <polygon points="173.61 93.44 137.9 87.57 137.9 105.65 178.13 105.65 173.61 93.44"/>
  <polygon points="155.98 79.2 137.9 77.96 137.9 98.42 160.28 98.42 155.98 79.2"/>
  <rect x="134.06" y="74.91" width="17.41" height="6.1"/>
  <polygon points="172.03 79.2 163.44 79.2 160.28 99.55 168.87 99.55 172.03 79.2"/>
  <rect x="34.9" y="93.44" width="23.96" height="8.36"/>
  <rect x="60.22" y="93.44" width="23.96" height="8.36"/>
  <rect x="85.53" y="93.44" width="23.96" height="8.36"/>
  <rect x="110.85" y="93.44" width="23.96" height="8.36"/>
  <rect x="34.9" y="83.39" width="23.96" height="8.36"/>
  <rect x="60.22" y="83.39" width="23.96" height="8.36"/>
  <rect x="85.53" y="83.39" width="23.96" height="8.36"/>
  <rect x="110.85" y="83.39" width="23.96" height="8.36"/>
</svg>