<?xml version="1.0" encoding="UTF-8"?>
<svg id="Layer_1" data-name="Layer 1" xmlns="http://www.w3.org/2000/svg" viewBox="0 0 200 200">
  <path d="M15.35,103.39s8.79,17.14,9.26,19.3c.05,0,.1,0,.15,0,2.01,0,3.77-.62,4.78-1.54.49-.45,1.27-.45,1.76,0,1,.93,2.77,1.54,4.78,1.54s3.77-.62,4.78-1.54c.49-.45,1.27-.45,1.76,0,1,.93,2.77,1.54,4.78,1.54s3.77-.62,4.78-1.54c.49-.45,1.27-.45,1.76,0,1,.93,2.77,1.54,4.78,1.54s3.77-.62,4.78-1.54c.49-.45,1.27-.45,1.76,0,1,.93,2.77,1.54,4.78,1.54s3.77-.62,4.78-1.54c.49-.45,1.27-.45,1.76,0,1,.93,2.77,1.54,4.78,1.54s3.77-.62,4.78-1.54c.49-.45,1.27-.45,1.76,0,1,.93,2.77,1.54,4.78,1.54s3.77-.62,4.78-1.54c.49-.45,1.27-.45,1.76,0,1,.93,2.77,1.54,4.78,1.54s3.77-.62,4.78-1.54c.49-.45,1.27-.45,1.76,0,1,.93,2.77,1.54,4.78,1.54s3.77-.62,4.78-1.54c.49-.45,1.27-.45,1.76,0,1,.93,2.77,1.54,4.78,1.54s3.77-.62,4.78-1.54c.49-.45,1.27-.45,1.76,0,1,.93,2.77,1.54,4.78,1.54s3.77-.62,4.78-1.54c.49-.45,1.27-.45,1.76,0,1,.93,2.77,1.54,4.78,1.54s3.77-.62,4.78-1.54c.49-.45,1.27-.45,1.76,0,1,.93,2.77,1.54,4.78,1.54s3.77-.62,4.78-1.54c.49-.45,1.27-.45,1.76,0,1,.93,2.77,1.54,4.78,1.54s3.77-.62,4.78-1.54c.49-.45,1.27-.45,1.76,0,1,.93,2.77,1.54,4.78,1.54.21,0,.43-.01.63-.02l.77-19.28H15.35Z"/>
  <polygon points="172.22 93.44 136.51 87.57 136.51 105.65 176.74 105.65 172.22 93.44"/>
  <polygon points="154.59 79.2 136.51 77.96 136.51 98.42 158.88 98.42 154.59 79.2"/>
  <rect x="132.66" y="74.91" width="17.41" height="6.1"/>
  <polygon points="170.64 79.2 162.05 79.2 158.88 99.55 167.47 99.55 170.64 79.2"/>
  <rect x="33.51" y="98.42" width="23.96" height="3.39"/>
  <rect x="43.06" y="79.1" width="71.79" height="2.59"/>
  <rect x="43.06" y="81.01" width="2.76" height="20.8"/>
  <rect x="77.58" y="81.01" width="2.76" height="20.8"/>
  <rect x="112.09" y="81.01" width="2.76" height="20.8"/>
  <path d="M44.44,85.31h0c8.71,0,15.79,7.07,15.79,15.79v.72h-31.57v-.72c0-8.71,7.07-15.79,15.79-15.79Z"/>
  <path d="M78.96,85.31h0c8.71,0,15.79,7.07,15.79,15.79v.72h-31.57v-.72c0-8.71,7.07-15.79,15.79-15.79Z"/>
  <path d="M113.47,85.31h0c8.71,0,15.79,7.07,15.79,15.79v.72h-31.57v-.72c0-8.71,7.07-15.79,15.79-15.79Z"/>
</svg>