<?xml version="1.0" encoding="UTF-8"?>
<svg id="Layer_1" data-name="Layer 1" xmlns="http://www.w3.org/2000/svg" viewBox="0 0 200 200">
  <path d="M98,127.83c-7.32,0-13.28,5.96-13.28,13.28s5.96,13.28,13.28,13.28,13.28-5.96,13.28-13.28-5.96-13.28-13.28-13.28ZM98,145.01c-2.15,0-3.91-1.75-3.91-3.91s1.75-3.91,3.91-3.91,3.91,1.75,3.91,3.91-1.75,3.91-3.91,3.91Z"/>
  <path d="M51.89,127.83c-7.32,0-13.28,5.96-13.28,13.28s5.96,13.28,13.28,13.28,13.28-5.96,13.28-13.28-5.96-13.28-13.28-13.28ZM51.89,145.01c-2.15,0-3.91-1.75-3.91-3.91s1.75-3.91,3.91-3.91,3.91,1.75,3.91,3.91-1.75,3.91-3.91,3.91Z"/>
  <path d="M144.15,127.83c-7.32,0-13.28,5.96-13.28,13.28s5.96,13.28,13.28,13.28,13.28-5.96,13.28-13.28-5.96-13.28-13.28-13.28ZM144.15,145.01c-2.15,0-3.91-1.75-3.91-3.91s1.75-3.91,3.91-3.91,3.91,1.75,3.91,3.91-1.75,3.91-3.91,3.91Z"/>
  <path d="M166.18,104.63h-6.59v-12.98c0-2.58-2.09-4.67-4.67-4.67h-3.34v-23.73h3.37l3.61-17.63h-36.62l3.61,17.63h3.37v23.73h-8.08v-4.63c0-6.3-5.11-11.42-11.42-11.42h0c-6.3,0-11.41,5.11-11.41,11.41v4.63h-6.34v-28.53c0-4.22-3.42-7.63-7.63-7.63H22.18c-3.43,0-6.22,2.78-6.22,6.22s2.78,6.22,6.22,6.22h12.16v31.27c-4.81,1.01-8.43,5.28-8.43,10.39v34.9h5.07c1.58,0,2.92-1.17,3.13-2.73,1.26-9.35,8.74-15.14,17.78-15.14s16.52,5.79,17.78,15.14c.17,1.3,1.13,2.31,2.35,2.62v.11h5.07c1.58,0,2.92-1.17,3.13-2.73,1.26-9.35,8.74-15.14,17.78-15.14s16.52,5.79,17.78,15.14c.18,1.31,1.15,2.33,2.39,2.63v.1h5.07c1.58,0,2.92-1.17,3.13-2.73,1.26-9.35,8.74-15.14,17.78-15.14s16.52,5.79,17.78,15.14c.21,1.56,1.55,2.73,3.13,2.73h18.97l-17.86-35.17ZM82.95,88.4c0,2.05-1.41,3.83-3.4,4.31l-30.31-.12c-2.78.66-5.45-1.45-5.45-4.31v-21.41c0-2.45,1.98-4.43,4.43-4.43h30.31c2.45,0,4.43,1.98,4.43,4.43v21.53Z"/>
</svg>