<?xml version="1.0" encoding="UTF-8"?>
<svg id="Layer_1" data-name="Layer 1" xmlns="http://www.w3.org/2000/svg" viewBox="0 0 200 200">
  <path d="M150.79,122.92c-7.32,0-13.28,5.96-13.28,13.28s5.96,13.28,13.28,13.28,13.28-5.96,13.28-13.28-5.96-13.28-13.28-13.28ZM150.79,140.11c-2.15,0-3.91-1.75-3.91-3.91s1.75-3.91,3.91-3.91,3.91,1.75,3.91,3.91-1.75,3.91-3.91,3.91Z"/>
  <path d="M149.52,67.7h-22.95c-1.73,0-3.13,1.4-3.13,3.13v60.95c0,1.73,1.4,3.13,3.13,3.13h3.31c1.55,0,2.92-1.11,3.12-2.65,1.23-9.4,8.72-15.23,17.79-15.23s16.56,5.83,17.79,15.23c.2,1.53,1.57,2.65,3.12,2.65h3.31c1.73,0,3.13-1.4,3.13-3.13v-30.47c0-.73-.26-1.44-.73-2l-25.49-30.47c-.59-.71-1.47-1.12-2.4-1.12ZM129.69,92.71v-15.63c0-1.73,1.4-3.13,3.13-3.13h13.77c.93,0,1.81.41,2.4,1.13l13.02,15.63c1.7,2.04.25,5.13-2.4,5.13h-26.79c-1.73,0-3.13-1.4-3.13-3.13Z"/>
  <path d="M24.99,134.9h8c1.55,0,2.92-1.11,3.12-2.65,1.23-9.4,8.72-15.23,17.79-15.23s16.56,5.83,17.79,15.23c.2,1.53,1.57,2.65,3.12,2.65h39.25c1.73,0,3.13-1.4,3.13-3.13V53.64c0-1.73-1.4-3.13-3.13-3.13H24.99c-1.73,0-3.13,1.4-3.13,3.13v78.13c0,1.73,1.4,3.13,3.13,3.13Z"/>
  <path d="M53.9,122.92c-7.32,0-13.28,5.96-13.28,13.28s5.96,13.28,13.28,13.28,13.28-5.96,13.28-13.28c0-7.32-5.96-13.28-13.28-13.28ZM53.9,140.11c-2.15,0-3.91-1.75-3.91-3.91s1.75-3.91,3.91-3.91,3.91,1.75,3.91,3.91-1.75,3.91-3.91,3.91Z"/>
</svg>