<?xml version="1.0" encoding="UTF-8"?>
<svg id="Layer_1" data-name="Layer 1" xmlns="http://www.w3.org/2000/svg" viewBox="0 0 200 200">
  <circle cx="113.13" cy="47.5" r="15.65"/>
  <path d="M61.43,164.2l11.5-2.45c10.39-2.24,19.08-9.38,23.25-19.14l2.75-6.46,8.23,2.81c5.67,1.91,10.06,6.49,11.72,12.24l3.08,10.47c1.12,3.9,4.66,6.49,8.61,6.49.35,0,.71-.03,1.09-.08,2.59-.3,4.91-1.72,6.38-3.87,1.47-2.15,1.91-4.83,1.25-7.36l-3.35-12.73c-2.13-8.12-7.01-15.4-13.66-20.5l-9.84-7.52,3.76-20.8c8.61,5.34,19.52,5.51,28.43.14l1.74-1.04c3.52-2.13,4.66-6.73,2.54-10.25-1.99-3.33-6.27-4.55-9.73-2.84-4.53,2.24-10.09,1.01-13.22-2.94l-1.55-1.96c-3.46-4.36-8.42-7.22-13.93-8.04l-11.8-1.74c-4.09-.6-8.29-.05-12.08,1.64l-1.91.82c-14.12,6.24-22.98,20.77-22.03,36.18.11,1.96,1.06,3.79,2.59,5.04,1.53,1.23,3.49,1.8,5.45,1.53,3.38-.49,5.94-3.33,6.08-6.76.25-6.87,3.9-13.11,9.54-16.77l-10.47,50.05-19.87,7.8c-3.65,1.42-6.02,4.88-6.02,8.81,0,2.86,1.28,5.56,3.52,7.36,2.24,1.8,5.13,2.51,7.93,1.91Z"/>
</svg>