<?xml version="1.0" encoding="UTF-8"?>
<svg id="Layer_1" data-name="Layer 1" xmlns="http://www.w3.org/2000/svg" viewBox="0 0 32 32">
  <defs>
    <style>
      .cls-1 {
        fill: none;
        stroke: #fff;
        stroke-miterlimit: 10;
      }

      .cls-2 {
        fill: #4d4d4d;
      }
    </style>
  </defs>
  <g>
    <polygon class="cls-1" points="7.5 7.5 13 7.5 13 6 6 6 6 13 7.5 13 7.5 7.5"/>
    <polygon class="cls-1" points="24.5 24.5 19 24.5 19 26 26 26 26 19 24.5 19 24.5 24.5"/>
    <polygon class="cls-1" points="24.5 7.5 24.5 13 26 13 26 6 19 6 19 7.5 24.5 7.5"/>
    <polygon class="cls-1" points="7.5 24.5 7.5 19 6 19 6 26 13 26 13 24.5 7.5 24.5"/>
    <circle class="cls-1" cx="15.7" cy="16.31" r="4"/>
  </g>
  <g>
    <polygon class="cls-2" points="7.5 7.5 13 7.5 13 6 6 6 6 13 7.5 13 7.5 7.5"/>
    <polygon class="cls-2" points="24.5 24.5 19 24.5 19 26 26 26 26 19 24.5 19 24.5 24.5"/>
    <polygon class="cls-2" points="24.5 7.5 24.5 13 26 13 26 6 19 6 19 7.5 24.5 7.5"/>
    <polygon class="cls-2" points="7.5 24.5 7.5 19 6 19 6 26 13 26 13 24.5 7.5 24.5"/>
    <circle class="cls-2" cx="15.7" cy="16.31" r="4"/>
  </g>
</svg>