<?xml version="1.0" encoding="utf-8"?>
<!-- Generator: Adobe Illustrator 30.4.0, SVG Export Plug-In . SVG Version: 9.03 Build 0)  -->
<svg version="1.0" id="Layer_1" xmlns="http://www.w3.org/2000/svg" xmlns:xlink="http://www.w3.org/1999/xlink" x="0px" y="0px"
	 viewBox="0 0 225 75" style="enable-background:new 0 0 225 75;" xml:space="preserve">
<g>
	<g>
		<path style="fill:#FFFFFF;" d="M38.409,15.023c1.057,0.042,2.094,0.16,3.109,0.343c5.089,2.941,8.819,11.292,9.037,21.224H38.409
			V15.023z"/>
		<path style="fill:#FFFFFF;" d="M29.276,16.552c-3.896,4.341-6.515,11.674-6.695,20.039H15
			C15.368,27.456,21.177,19.728,29.276,16.552z"/>
		<path style="fill:#FFFFFF;" d="M15,38.432h7.582c0.18,8.365,2.799,15.697,6.695,20.039C21.177,55.295,15.368,47.567,15,38.432z"/>
		<path style="fill:#FFFFFF;" d="M36.568,60c-1.057-0.043-2.094-0.16-3.109-0.343c-5.089-2.941-8.819-11.292-9.037-21.224h12.146V60
			z"/>
		<path style="fill:#FFFFFF;" d="M36.568,36.591H24.422c0.218-9.932,3.948-18.283,9.037-21.224c1.015-0.183,2.052-0.301,3.109-0.343
			V36.591z"/>
		<polygon style="fill:#FFFFFF;" points="37.486,15 37.488,15 37.49,15 		"/>
		<path style="fill:#FFFFFF;" d="M41.518,59.657c-1.015,0.183-2.052,0.301-3.109,0.343V38.432h12.146
			C50.337,48.364,46.607,56.716,41.518,59.657z"/>
		<path style="fill:#FFFFFF;" d="M45.701,58.471c3.896-4.342,6.514-11.674,6.695-20.039h7.581
			C59.609,47.567,53.799,55.295,45.701,58.471z"/>
		<path style="fill:#FFFFFF;" d="M52.395,36.591c-0.18-8.365-2.799-15.697-6.695-20.039c8.099,3.176,13.908,10.904,14.276,20.039
			H52.395z"/>
		<polygon style="fill:#FFFFFF;" points="60,37.516 60,37.507 60,37.512 		"/>
	</g>
	<g>
		<g>
			<path style="fill:#FFFFFF;" d="M89.325,23.457c1.061,0.812,1.373,2.206,1.373,6.18c0,3.995-0.312,5.389-1.373,6.2
				s-2.372,0.958-8.115,0.958c-5.847,0-7.137-0.146-8.199-0.958c-1.082-0.832-1.373-2.205-1.373-6.284
				c0-3.87,0.312-5.285,1.373-6.097c1.061-0.811,2.372-0.957,8.157-0.957C86.974,22.5,88.264,22.646,89.325,23.457z M77.132,26.287
				c-1.04,0.27-1.269,0.916-1.269,3.725c0,1.727,0.146,2.289,0.624,2.684c0.562,0.437,1.228,0.5,4.723,0.5
				c3.391,0,4.099-0.083,4.64-0.5c0.478-0.375,0.624-0.978,0.624-2.663c0-1.998-0.104-2.788-0.479-3.267
				c-0.437-0.603-0.916-0.666-4.827-0.666C78.297,26.1,77.715,26.12,77.132,26.287z"/>
			<path style="fill:#FFFFFF;" d="M92.293,22.708h9.967c4.599,0.021,4.744,0.021,5.514,0.395c1.02,0.478,1.416,1.394,1.416,3.225
				c0,1.977-0.479,2.788-1.873,3.184c1.83,0.312,2.392,1.123,2.392,3.35c0,1.935-0.5,2.934-1.664,3.392
				c-0.478,0.187-1.269,0.27-2.518,0.312c-0.167,0-1.249,0-3.246,0.021h-9.988V22.708z M102.26,28.181
				c1.436,0,2.06-0.041,2.331-0.146c0.333-0.125,0.5-0.479,0.5-0.999c0-0.562-0.187-0.874-0.604-0.978
				c-0.229-0.063-0.271-0.063-2.227-0.083h-5.951v2.206H102.26z M102.281,33.258c2.475-0.021,2.475-0.021,2.788-0.146
				c0.375-0.146,0.541-0.458,0.541-1.061c0-0.624-0.187-0.916-0.624-1.04c-0.23-0.041-0.23-0.041-2.705-0.062h-5.972v2.31H102.281z"
				/>
			<path style="fill:#FFFFFF;" d="M126.437,22.708v3.267h-11.195v2.018h10.632v3.059h-10.632v2.206h11.278v3.329h-15.439V22.708
				H126.437z"/>
			<path style="fill:#FFFFFF;" d="M127.94,22.708h10.217c4.786,0,4.786,0,5.681,0.541c1.061,0.645,1.373,1.561,1.373,3.974
				c0,2.018-0.208,2.788-0.895,3.371c-0.416,0.333-0.811,0.5-1.686,0.624c2.144,0.25,2.518,0.874,2.435,4.078v1.29h-4.162v-0.728
				c0-1.561-0.083-2.06-0.416-2.414c-0.291-0.333-0.604-0.374-2.352-0.374h-5.971v3.516h-4.225V22.708z M138.115,29.596
				c2.081-0.042,2.081-0.042,2.372-0.208c0.374-0.229,0.5-0.624,0.5-1.54c0-0.915-0.146-1.31-0.562-1.498
				c-0.312-0.146-0.354-0.146-2.31-0.166h-5.951v3.413H138.115z"/>
			<path style="fill:#FFFFFF;" d="M154.361,22.708l4.12,9.009l4.141-9.009h7.616v13.879h-4.162l0.104-10.383h-0.707l-5.223,10.383
				h-3.517l-5.223-10.383h-0.749l0.104,10.383h-4.162V22.708H154.361z"/>
			<path style="fill:#FFFFFF;" d="M186.399,34.236h-9.176l-1.186,2.351h-4.827l7.345-13.879h6.576l7.262,13.879h-4.807
				L186.399,34.236z M182.238,25.933h-0.833l-2.684,5.265h6.2L182.238,25.933z"/>
			<path style="fill:#FFFFFF;" d="M193.353,22.708h9.509c2.498,0,2.913,0.021,3.621,0.104C209.23,23.187,210,24.29,210,27.91
				c0,3.017-0.521,4.224-2.122,4.848c-0.936,0.354-1.894,0.437-4.973,0.437h-5.327v3.391h-4.225V22.708z M202.862,29.72
				c1.915-0.021,1.998-0.021,2.352-0.208c0.416-0.229,0.561-0.604,0.561-1.602c0-0.978-0.166-1.373-0.687-1.581
				c-0.291-0.125-0.333-0.125-2.227-0.146h-5.284v3.537H202.862z"/>
		</g>
		<g>
			<path style="fill:#FFFFFF;" d="M73.407,48.13v0.292c0.042,1.581,0.167,1.893,0.812,2.185c0.541,0.229,2.122,0.333,5.056,0.333
				c1.81,0,3.662-0.125,4.453-0.312c0.895-0.187,1.332-0.874,1.332-2.06s-0.25-1.727-0.936-1.977s-0.687-0.25-7.533-0.25
				c-3.662,0-5.014-1.04-5.014-3.87c0-1.248,0.353-2.164,1.04-2.726c0.687-0.562,1.374-0.791,2.872-0.978
				c1.04-0.125,2.955-0.229,4.37-0.229c3.121,0,4.661,0.292,5.618,1.061c0.791,0.624,1.02,1.311,1.04,3.101h-1.852v-0.208
				c0-1.02-0.104-1.373-0.437-1.623c-0.666-0.541-1.935-0.749-4.495-0.749c-3.558,0-5.181,0.25-5.826,0.874
				c-0.291,0.291-0.437,0.791-0.437,1.498c0,1.228,0.229,1.644,1.103,1.915c0.666,0.229,1.727,0.312,3.642,0.333
				c0.894,0,0.894,0,4.515,0.021c1.977,0,2.913,0.333,3.579,1.228c0.437,0.583,0.645,1.374,0.645,2.435
				c0,1.706-0.478,2.746-1.54,3.329c-1.02,0.541-3.017,0.749-7.324,0.749c-3.059,0-4.266-0.146-5.14-0.645
				c-1.02-0.562-1.352-1.332-1.352-3.1c0-0.041,0-0.375,0.021-0.624H73.407z"/>
			<path style="fill:#FFFFFF;" d="M103.338,38.58v1.623h-6.929v12.256h-1.852V40.203h-6.97V38.58H103.338z"/>
			<path style="fill:#FFFFFF;" d="M106.347,38.58v6.825c0,3.954,0.021,4.12,0.395,4.661c0.395,0.582,1.727,0.77,5.472,0.77
				c4.516,0,5.868-0.166,6.367-0.749c0.395-0.458,0.417-0.687,0.437-4.682V38.58h1.852v6.825c-0.021,2.872-0.021,2.975-0.104,3.829
				c-0.146,1.685-0.999,2.684-2.518,2.975c-0.915,0.166-3.309,0.291-5.555,0.291c-2.851,0-4.744-0.104-5.702-0.291
				c-1.29-0.27-2.184-1.311-2.351-2.726c-0.104-0.853-0.125-1.124-0.146-4.079V38.58H106.347z"/>
			<path style="fill:#FFFFFF;" d="M122.805,38.58h9.572c4.286,0,5.347,0.229,6.388,1.332c0.916,0.978,1.207,2.33,1.207,5.597
				c0,3.08-0.437,4.827-1.477,5.805c-0.999,0.936-2.06,1.145-5.972,1.145h-9.717V38.58z M132.439,50.836
				c2.663,0,2.767,0,3.537-0.188c1.498-0.353,2.101-1.851,2.101-5.223c0-2.143-0.291-3.62-0.832-4.307
				c-0.437-0.52-1.061-0.77-2.247-0.874c-0.437-0.041-0.958-0.041-2.663-0.041h-7.679v10.633H132.439z"/>
			<path style="fill:#FFFFFF;" d="M143.54,38.58v13.879h-1.851V38.58H143.54z"/>
			<path style="fill:#FFFFFF;" d="M161.499,39.662c0.562,0.541,0.812,1.207,0.978,2.601c0.084,0.749,0.147,2.164,0.147,3.309
				c0,3.413-0.292,4.973-1.062,5.806c-0.811,0.874-2.331,1.123-6.596,1.123c-2.081,0-5.161-0.083-5.952-0.166
				c-1.393-0.125-2.08-0.395-2.705-1.061c-0.832-0.853-1.04-2.06-1.04-5.806c0-3.724,0.334-5.202,1.353-5.992
				c0.687-0.52,1.373-0.708,3.142-0.812c0.853-0.062,3.267-0.125,4.599-0.125C159.107,38.538,160.604,38.767,161.499,39.662z
				 M147.871,40.889c-0.5,0.458-0.708,1.769-0.708,4.432c0,3.08,0.146,4.287,0.582,4.765c0.354,0.395,0.895,0.541,2.331,0.624
				c0.77,0.062,3.121,0.125,4.12,0.125c2.018,0,3.954-0.104,4.89-0.27c0.812-0.146,1.249-0.583,1.416-1.415
				c0.124-0.749,0.229-2.247,0.229-3.537c0-1.561-0.083-3.226-0.208-3.85c-0.124-0.791-0.624-1.207-1.56-1.352
				c-1.062-0.167-2.144-0.208-5.681-0.208C149.826,40.203,148.412,40.39,147.871,40.889z"/>
		</g>
	</g>
</g>
<g>
</g>
<g>
</g>
<g>
</g>
<g>
</g>
<g>
</g>
<g>
</g>
<g>
</g>
<g>
</g>
<g>
</g>
<g>
</g>
<g>
</g>
<g>
</g>
<g>
</g>
<g>
</g>
<g>
</g>
</svg>
