<?xml version="1.0" encoding="UTF-8"?>
<svg id="Layer_1" data-name="Layer 1" xmlns="http://www.w3.org/2000/svg" viewBox="0 0 200 200">
  <path d="M40.75,39.89l-.62,4.8,6.74,8.1-3.78,23.36-2.04-2.04h0s-.02-.02-.03-.04c-.44-.44-1.16-.44-1.6,0-.44.44-.44,1.16,0,1.6.01.01.03.02.04.03h0s10.33,10.33,10.33,10.33l13.35-17.55,6.18,4.19-.71,15.04,5.93,3.25,5.64-9.88c.47.47,2.21,1.65,2.83,1.41l2.08-2.08.38.38c1.25,1.25,2.61,1.94,3.02,1.52s-.27-1.77-1.52-3.02l-.38-.38,2.08-2.08c.24-.62-.94-2.36-1.41-2.83l9.88-5.64-3.25-5.93-15.04.71-4.19-6.18,17.55-13.35-10.33-10.33s0,0,0,0h0s-.02-.02-.04-.04c-.44-.44-1.16-.44-1.6,0-.44.44-.44,1.16,0,1.6.01.01.03.02.04.03h0s2.04,2.04,2.04,2.04l-23.36,3.78-8.1-6.74-4.8.62s-5.92-5.86-9.91-8.26c-3.99-2.4-5.92-2.27-5.92-2.27,0,0-.12,1.92,2.27,5.92,2.4,3.99,8.26,9.91,8.26,9.91Z"/>
  <path d="M110.76,39.95l-.42,3.26,4.58,5.51-2.57,15.87-1.39-1.39h0s-.02-.02-.02-.03c-.3-.3-.79-.3-1.09,0s-.3.79,0,1.09c0,0,.02.02.03.02h0s7.02,7.02,7.02,7.02l9.07-11.93,4.2,2.85-.48,10.22,4.03,2.21,3.83-6.71c.32.32,1.5,1.12,1.93.96l1.41-1.41.26.26c.85.85,1.77,1.32,2.05,1.03.28-.28-.18-1.2-1.03-2.05l-.26-.26,1.41-1.41c.17-.42-.64-1.61-.96-1.93l6.72-3.83-2.21-4.03-10.22.48-2.85-4.2,11.93-9.07-7.02-7.02h0s-.02-.02-.02-.03c-.3-.3-.79-.3-1.09,0s-.3.79,0,1.09c0,0,.02.02.03.02h0s1.39,1.39,1.39,1.39l-15.87,2.57-5.51-4.58-3.26.42s-4.02-3.98-6.74-5.61c-2.71-1.63-4.02-1.54-4.02-1.54,0,0-.08,1.31,1.54,4.02,1.63,2.71,5.61,6.74,5.61,6.74Z"/>
  <path d="M79.43,175.94h107.54v-9.64h-16.16v-42.67h4.21l5-9.31v-14.82h-17.27v-5.42h12.27v-7.75h-30.84v7.75h12.27v5.42h-17.27v14.82l5,9.31h4.21v42.67h-5.62v-20.94h-57.68v20.94h-5.65v-20.94H21.75v20.94h-8.71v9.64h66.39ZM144.77,111.92v-7.31h29.64v7.31h-29.64Z"/>
</svg>