<?xml version="1.0" encoding="UTF-8"?>
<svg id="Layer_1" data-name="Layer 1" xmlns="http://www.w3.org/2000/svg" viewBox="0 0 200 200">
  <path d="M32.69,153.79c-1.59,1.59,1.46,7.21,6.8,12.56,5.35,5.35,10.97,8.39,12.56,6.8l84.78-84.78,9.79,9.79,11.07-11.07-2.8-16.78,10.51-10.51c2.54-2.54,4.51-5.61,5.75-8.99l6.64-18.07c1.07-2.92-1.77-5.76-4.69-4.69l-18.07,6.64c-3.38,1.24-6.45,3.2-8.99,5.75l-10.51,10.51-16.78-2.8-11.07,11.07,9.79,9.79-44.53,44.53-30.08-4.89-20.87,20.87,17.48,17.48-6.79,6.79Z"/>
  <polygon points="58.84 166.36 76.32 183.84 97.19 162.97 92.3 132.89 58.84 166.36"/>
  <path d="M30.59,85.34c-.87.87.8,3.96,3.74,6.9s6.02,4.61,6.9,3.74l3.73-3.73,9.6,9.6,11.46-11.46-2.69-16.52,24.45-24.45,5.37,5.37,6.08-6.08-1.54-9.21,5.77-5.77c1.4-1.4,2.47-3.08,3.16-4.94l3.65-9.92c.59-1.61-.97-3.17-2.58-2.58l-9.92,3.65c-1.86.68-3.54,1.76-4.94,3.16l-5.77,5.77-9.21-1.54-6.08,6.08,5.37,5.37-24.45,24.45-16.52-2.69-11.46,11.46,9.6,9.6-3.73,3.73Z"/>
</svg>