<?xml version="1.0" encoding="UTF-8"?>
<svg id="Layer_1" data-name="Layer 1" xmlns="http://www.w3.org/2000/svg" viewBox="0 0 200 200">
  <path d="M163.43,77.26h-18.18v14.99c0,5.11-4.14,9.26-9.26,9.26h-15.02l41.36-58.16c1.09-1.53-.07-4.23-2.59-6.02-2.52-1.79-5.44-2-6.53-.47l-45.97,64.64h-7.82l41.36-58.16c1.09-1.53-.07-4.23-2.59-6.02-2.52-1.79-5.44-2-6.53-.47l-45.67,64.23c-3.76-1.17-6.5-4.69-6.5-8.84v-14.99h-43.37v55.71h127.3v-55.71Z"/>
  <polygon points="42.98 139.65 39.18 164.16 163.87 164.16 160.07 139.65 42.98 139.65"/>
</svg>