<?xml version="1.0" encoding="UTF-8"?>
<svg id="Layer_1" data-name="Layer 1" xmlns="http://www.w3.org/2000/svg" viewBox="0 0 200 200">
  <path d="M170.78,52.78l-2.83-2.83-2.83-2.83c-.65.4-1.33.81-2.02,1.24l-10.66-12.29-11.25,11.25-.4,15.39c-18.52,12.44-40.24,28.47-56.59,44.82-17.07,17.07-28.9,31.78-35.68,43.25,3.6,2.23,7.11,4.98,10.36,8.23s6,6.75,8.23,10.36c11.47-6.78,26.18-18.6,43.25-35.68,16.35-16.35,32.38-38.07,44.82-56.59l15.39-.4,11.24-11.25-12.29-10.66c.42-.69.84-1.36,1.24-2.02Z"/>
  <path d="M45.81,155.74c-1.07,2.12-1.93,4.1-2.58,5.94l-1.05,3.2c-.64,1.97-.73,4.34-.25,6.96l.25,1.39c.05.29.25.62.52.9l.53.53.53.53c.28.28.61.47.9.52l1.39.25c2.63.48,4.99.39,6.96-.25l3.2-1.05c1.84-.66,3.83-1.52,5.95-2.59-2-3.18-4.45-6.25-7.28-9.08-2.83-2.83-5.9-5.26-9.08-7.27Z"/>
  <path d="M22.41,90.18c-.63.81-1.18,1.6-1.67,2.35l-1.23,2.03c-.76,1.25-1.2,2.86-1.29,4.74l-.05,1c-.01.2.07.46.22.7l.28.45.28.45c.15.24.34.42.53.5l.92.4c1.73.75,3.37,1.07,4.83.94l2.37-.21c.89-.1,1.85-.27,2.85-.47-.82-2.35-1.93-4.68-3.3-6.88-1.39-2.23-2.99-4.25-4.72-6.01Z"/>
  <path d="M111.22,52.35l10.64,2.19,9.53-5.93-6.74-9.3c.4-.41.79-.8,1.17-1.19l-1.49-2.39-1.49-2.39c-.51.17-1.04.35-1.58.53l-5.36-10.15-9.53,5.93-2.74,10.51c-14.72,5.58-32.21,13.11-46.07,21.73-14.47,9-24.95,17.21-31.45,24.01,2.12,2.11,4.09,4.55,5.8,7.31,1.71,2.76,3.04,5.6,4,8.43,8.97-2.82,20.96-8.58,35.43-17.58,13.85-8.62,28.35-20.97,39.86-31.7Z"/>
</svg>