<?xml version="1.0" encoding="UTF-8"?>
<svg id="Layer_1" data-name="Layer 1" xmlns="http://www.w3.org/2000/svg" viewBox="0 0 200 200">
  <path d="M35.73,157.57c.49-.45,1.27-.45,1.76,0,1,.93,2.77,1.54,4.78,1.54s3.77-.62,4.78-1.54c.49-.45,1.27-.45,1.76,0,1,.93,2.77,1.54,4.78,1.54s3.77-.62,4.78-1.54c.49-.45,1.27-.45,1.76,0,1,.93,2.77,1.54,4.78,1.54s3.77-.62,4.78-1.54c.49-.45,1.27-.45,1.76,0,1,.93,2.77,1.54,4.78,1.54s3.77-.62,4.78-1.54c.49-.45,1.27-.45,1.76,0,1,.93,2.77,1.54,4.78,1.54s3.77-.62,4.78-1.54c.49-.45,1.27-.45,1.76,0,1,.93,2.77,1.54,4.78,1.54s3.77-.62,4.78-1.54c.49-.45,1.27-.45,1.76,0,1,.93,2.77,1.54,4.78,1.54s3.77-.62,4.78-1.54c.49-.45,1.27-.45,1.76,0,1,.93,2.77,1.54,4.78,1.54s3.77-.62,4.78-1.54c.49-.45,1.27-.45,1.76,0,1,.93,2.77,1.54,4.78,1.54s3.77-.62,4.78-1.54c.49-.45,1.27-.45,1.76,0,1,.93,2.77,1.54,4.78,1.54s3.77-.62,4.78-1.54c.49-.45,1.27-.45,1.76,0,1,.93,2.77,1.54,4.78,1.54s3.77-.62,4.78-1.54c.49-.45,1.27-.45,1.76,0,1,.93,2.77,1.54,4.78,1.54s3.77-.62,4.78-1.54c.49-.45,1.27-.45,1.76,0,1,.93,2.77,1.54,4.78,1.54s3.67-.58,4.69-1.47l2.26-11.88h1.95c.64,0,1.16-.52,1.16-1.16s-.52-1.16-1.16-1.16h-52.95v-11.65h-4.41v-9.59c0-.51-.42-.93-.93-.93s-.93.42-.93.93v9.59h-1.39v-5.34c0-.51-.42-.93-.93-.93s-.93.42-.93.93v5.34h-13v4.8l3.35,3.09v3.76H12.98c-.64,0-1.16.52-1.16,1.16s.52,1.16,1.16,1.16h4.47l4.75,2.88c3.78,2.29,6.45,6.05,7.38,10.36.44.06.89.1,1.36.1,2.01,0,3.77-.62,4.78-1.54Z"/>
  <path d="M63.32,56.72l-.62,4.8,6.74,8.1-3.78,23.36-2.04-2.04h0s-.02-.02-.03-.04c-.44-.44-1.16-.44-1.6,0-.44.44-.44,1.16,0,1.6.01.01.03.02.04.03h0s10.33,10.33,10.33,10.33l13.35-17.55,6.18,4.19-.71,15.04,5.93,3.25,5.64-9.88c.47.47,2.21,1.65,2.83,1.41l2.08-2.08.38.38c1.25,1.25,2.61,1.94,3.02,1.52.41-.41-.27-1.77-1.52-3.02l-.38-.38,2.08-2.08c.25-.62-.94-2.36-1.41-2.83l9.88-5.64-3.25-5.93-15.04.71-4.19-6.18,17.55-13.35-10.33-10.33h0s-.02-.02-.03-.04c-.44-.44-1.16-.44-1.6,0s-.44,1.16,0,1.6c.01.01.03.02.04.03h0s2.04,2.04,2.04,2.04l-23.36,3.78-8.1-6.74-4.8.62s-5.92-5.86-9.91-8.26c-3.99-2.4-5.92-2.27-5.92-2.27,0,0-.12,1.92,2.27,5.92,2.4,3.99,8.26,9.91,8.26,9.91Z"/>
  <path d="M133.33,56.77l-.42,3.26,4.58,5.51-2.57,15.87-1.39-1.39h0s-.02-.02-.02-.03c-.3-.3-.79-.3-1.09,0s-.3.79,0,1.09c0,0,.02.02.03.02h0s7.02,7.02,7.02,7.02l9.07-11.93,4.2,2.85-.48,10.22,4.03,2.21,3.83-6.71c.32.32,1.5,1.12,1.93.96l1.41-1.41.26.26c.85.85,1.77,1.32,2.05,1.03s-.18-1.2-1.03-2.05l-.26-.26,1.41-1.41c.17-.42-.64-1.61-.96-1.93l6.71-3.83-2.21-4.03-10.22.48-2.85-4.2,11.93-9.07-7.02-7.02h0s-.02-.02-.02-.03c-.3-.3-.79-.3-1.09,0s-.3.79,0,1.09c0,0,.02.02.03.02h0s1.39,1.39,1.39,1.39l-15.87,2.57-5.51-4.58-3.26.42s-4.02-3.98-6.74-5.61c-2.71-1.63-4.02-1.54-4.02-1.54,0,0-.08,1.31,1.54,4.02,1.63,2.71,5.61,6.74,5.61,6.74Z"/>
</svg>