<?xml version="1.0" encoding="UTF-8"?>
<svg id="Layer_1" data-name="Layer 1" xmlns="http://www.w3.org/2000/svg" viewBox="0 0 200 200">
  <path d="M14.2,114.11l85.8-5.09,85.8,5.09,2.83.17.27-.17v-8.94H45.35v-9.88h5.23v-17.51h-15.98v-7.37h12.22v-7.23h-12.22v-3.12h12.22v-7.23h-12.22v-7.49h-7.53v7.49h-12.22v7.23h12.22v3.12h-12.22v7.23h12.22v7.37h-15.98v17.51h5.23v9.88h-5.23v8.94l.27.17,2.83-.17ZM16.33,90.14v-7.23h29.03v7.23h-29.03Z"/>
  <path d="M21.99,120.89l23.18,14.43h.7l2.76,17.9c2.08-.74,3.85-1.74,5.17-2.91,1.45-1.29,3.74-1.29,5.19,0,2.96,2.62,8.16,4.37,14.08,4.37s11.12-1.74,14.09-4.37c1.45-1.29,3.74-1.29,5.19,0,2.96,2.62,8.16,4.37,14.09,4.37s11.12-1.74,14.08-4.37c1.45-1.29,3.74-1.29,5.19,0,2.96,2.62,8.16,4.37,14.08,4.37,4.59,0,8.74-1.05,11.76-2.74l2.56-16.62h.7l23.18-14.43-78.01-4.63-78.01,4.63Z"/>
  <path d="M66.33,76.14h36.9c1.91,3.23,7.06,5.55,13.12,5.55s11.21-2.32,13.12-5.55h36.9c1.04,0,1.88-.81,1.88-1.81s-.84-1.81-1.88-1.81h-34.13l4.34-11.91c.34-.94-.17-1.97-1.16-2.3-.98-.33-2.06.17-2.4,1.11l-3.89,10.67c-1.07-1.48-2.83-2.73-5.04-3.62-.72-3.17-3.91-5.57-7.74-5.57s-7.02,2.39-7.74,5.57c-2.21.89-3.98,2.14-5.04,3.62l-3.89-10.67c-.34-.94-1.42-1.44-2.4-1.11-.98.33-1.5,1.36-1.16,2.3l4.34,11.91h-34.13c-1.04,0-1.88.81-1.88,1.81s.84,1.81,1.88,1.81ZM116.35,63.26c3.31,0,5.99,2.57,5.99,5.75,0,.16-.01.32-.02.47-1.73-.56-3.77-.9-5.96-.9s-4.24.33-5.96.9c-.01-.16-.02-.31-.02-.47,0-3.18,2.68-5.75,5.99-5.75Z"/>
  <ellipse cx="75.6" cy="81.69" rx="3.62" ry="3.48"/>
  <path d="M82.45,81.69c0,1.92,1.62,3.48,3.62,3.48s3.62-1.56,3.62-3.48-1.62-3.48-3.62-3.48-3.62,1.56-3.62,3.48Z"/>
  <path d="M143,81.69c0,1.92,1.62,3.48,3.62,3.48s3.62-1.56,3.62-3.48-1.62-3.48-3.62-3.48-3.62,1.56-3.62,3.48Z"/>
  <ellipse cx="157.09" cy="81.69" rx="3.62" ry="3.48"/>
</svg>