<?xml version="1.0" encoding="UTF-8"?>
<svg id="Layer_1" data-name="Layer 1" xmlns="http://www.w3.org/2000/svg" viewBox="0 0 200 200">
  <path d="M38.2,115.8c-11.32,0-20.53-9.21-20.53-20.53s9.21-20.53,20.53-20.53c8.48,0,15.77,5.17,18.9,12.52l5.73-.47c-3.53-10.22-13.23-17.58-24.63-17.58-14.37,0-26.05,11.69-26.05,26.05s11.69,26.05,26.05,26.05c11.4,0,21.1-7.36,24.63-17.58l-5.73-.47c-3.13,7.35-10.42,12.52-18.9,12.52Z"/>
  <path d="M86.8,62.83l.47-5.73c-7.35-3.13-12.52-10.42-12.52-18.9,0-11.32,9.21-20.53,20.53-20.53s20.53,9.21,20.53,20.53c0,8.48-5.17,15.77-12.52,18.9l.47,5.73c10.22-3.53,17.58-13.23,17.58-24.63,0-14.36-11.69-26.05-26.05-26.05s-26.05,11.69-26.05,26.05c0,11.4,7.36,21.1,17.58,24.63Z"/>
  <path d="M152.14,109.8c1.55,3.51,5.06,5.96,9.14,5.96,5.52,0,10-4.48,10-10s-4.48-10-10-10c-4.08,0-7.59,2.45-9.14,5.96l-31.19-2.55-18.85-18.85-2.67-32.73c3.61-1.6,6.13-5.2,6.13-9.4,0-5.68-4.6-10.28-10.28-10.28s-10.28,4.6-10.28,10.28c0,4.2,2.52,7.8,6.13,9.4l-1.64,20.11-2.88-2.88-21.77,21.77,2.88,2.88-20.11,1.64c-1.6-3.61-5.2-6.13-9.4-6.13-5.68,0-10.28,4.6-10.28,10.28s4.6,10.28,10.28,10.28c4.2,0,7.8-2.52,9.4-6.13l32.73,2.67,18.85,18.85,2.55,31.19c-3.51,1.55-5.96,5.06-5.96,9.14,0,5.52,4.48,10,10,10s10-4.48,10-10c0-4.08-2.45-7.59-5.96-9.14l1.55-19.02,1.81,1.81,21.77-21.77-1.81-1.81,19.02-1.55Z"/>
  <path d="M161.28,80.42c-11.09,0-20.53,7.16-23.96,17.1l5.57.45c3.04-7.15,10.14-12.18,18.38-12.18,11.01,0,19.97,8.96,19.97,19.97s-8.96,19.97-19.97,19.97c-8.25,0-15.34-5.03-18.38-12.18l-5.57.45c3.43,9.94,12.87,17.1,23.96,17.1,13.97,0,25.34-11.37,25.34-25.34s-11.37-25.34-25.34-25.34Z"/>
  <path d="M114,137.32l-.45,5.57c7.15,3.04,12.18,10.14,12.18,18.38,0,11.01-8.96,19.97-19.97,19.97s-19.97-8.96-19.97-19.97c0-8.25,5.03-15.34,12.18-18.38l-.45-5.57c-9.94,3.43-17.1,12.87-17.1,23.96,0,13.97,11.37,25.34,25.34,25.34s25.34-11.37,25.34-25.34c0-11.09-7.16-20.53-17.1-23.96Z"/>
</svg>