<?xml version="1.0" encoding="UTF-8"?>
<svg id="Layer_1" data-name="Layer 1" xmlns="http://www.w3.org/2000/svg" viewBox="0 0 200 200">
  <path d="M121.26,89.15l-3.44-.58c-7.22-1.22-14.64-.66-21.59,1.66l-19.99,6.65c-2.45.81-4.22,2.94-4.58,5.5l-.77,5.5-5.03,1.67c-4.71,1.57-8.08,5.72-8.64,10.66l-.9,7.94-.26.09c-4.36,1.45-6.71,6.16-5.27,10.51h0c1.5,4.51,5.37,7.82,10.07,8.6,2.61.43,5.29.22,7.8-.61l41.31-13.74c13.56-4.51,24.15-15.24,28.48-28.86l1.95-6.14,45.94-19.44c2.96-1.25,4.84-4.21,4.71-7.42l-.75-18.66-12.23,4.07-.43,10.45c-.14,3.3-2.3,6.16-5.43,7.21l-43.29,14.39c-2.47.82-5.1,1.02-7.66.59ZM79.35,129.75l-13.94,4.63c-1.39.46-2.83-.54-2.89-2l-.31-8.74c-.14-3.87,2.29-7.37,5.97-8.59l5.66-1.88c1.15-.38,2.39.24,2.78,1.39l4.13,12.42c.38,1.15-.24,2.39-1.39,2.78ZM97.49,118.88l-7.9,2.63c-1.42.47-2.96-.3-3.43-1.72l-2.35-7.08c-.47-1.42.3-2.96,1.72-3.43l7.9-2.63c1.42-.47,2.96.3,3.43,1.72l2.35,7.08c.47,1.42-.3,2.96-1.72,3.43ZM117.08,112.36l-7.9,2.63c-1.42.47-2.96-.3-3.43-1.72l-2.35-7.08c-.47-1.42.3-2.96,1.72-3.43l7.9-2.63c1.42-.47,2.96.3,3.43,1.72l2.35,7.08c.47,1.42-.3,2.96-1.72,3.43Z"/>
  <rect x="5.43" y="82.99" width="161.84" height="3.92" transform="translate(-22.39 31.59) rotate(-18.39)"/>
</svg>