<?xml version="1.0" encoding="UTF-8"?>
<svg id="Layer_1" data-name="Layer 1" xmlns="http://www.w3.org/2000/svg" viewBox="0 0 200 200">
  <path d="M52.03,63.12l-1.3,10.05,14.1,16.96-7.92,48.88-4.28-4.28h0s0,0,0,0c-.02-.03-.05-.05-.07-.08-.92-.92-2.42-.92-3.34,0-.92.92-.92,2.42,0,3.34.03.03.05.05.08.07h0s21.62,21.63,21.62,21.63l27.94-36.74,12.93,8.77-1.48,31.47,12.41,6.81,11.8-20.67c.98.98,4.63,3.46,5.93,2.94l4.34-4.34.8.8c2.62,2.62,5.45,4.05,6.32,3.19.87-.87-.56-3.69-3.19-6.32l-.8-.8,4.34-4.34c.51-1.3-1.96-4.95-2.94-5.93l20.67-11.8-6.81-12.41-31.47,1.48-8.77-12.93,36.74-27.94-21.62-21.62h0s-.05-.05-.07-.08c-.92-.92-2.42-.92-3.34,0-.92.92-.92,2.42,0,3.34.03.03.05.05.08.07h0s4.28,4.28,4.28,4.28l-48.88,7.92-16.96-14.1-10.05,1.3s-12.39-12.27-20.74-17.28c-8.36-5.01-12.38-4.75-12.38-4.75,0,0-.26,4.02,4.75,12.38,5.01,8.36,17.28,20.74,17.28,20.74Z"/>
</svg>