<?xml version="1.0" encoding="UTF-8"?>
<svg id="Layer_1" data-name="Layer 1" xmlns="http://www.w3.org/2000/svg" viewBox="0 0 200 200">
  <path d="M115.26,121.34c-.38-.68-1.27-.91-1.95-.53-4.13,2.18-8.62,3.28-13.31,3.28-4.99,0-9.89-1.3-14.2-3.78-.32-.21-.74-.27-1.12-.15-.38.12-.71.35-.92.71l-18.86,35c-.18.35-.24.77-.09,1.15.12.38.38.71.77.89,11.33,5.43,22.69,8.15,33.82,8.15,1.86,0,3.69-.06,5.49-.21,3.9-.32,8.06-1.15,13.07-2.6l2.15-.62c4.04-1.15,7.53-2.45,10.62-3.9,1.24-.59,2.51-1.21,3.75-1.89.35-.18.62-.5.74-.89.09-.38.06-.83-.15-1.15l-19.83-33.47Z"/>
  <path d="M30.65,95.9h39.37c.8,0,1.45-.62,1.48-1.42.35-9.56,5.46-18.27,13.66-23.31.68-.42.89-1.3.47-2.01l-20.72-34.5c-.24-.35-.56-.59-.94-.68-.41-.09-.83-.03-1.15.21-21.07,14.08-32.37,34.32-33.64,60.17,0,.39.15.8.41,1.07.3.3.68.47,1.06.47Z"/>
  <path d="M114.87,71.17c8.2,5.05,13.31,13.75,13.63,23.31.03.8.68,1.42,1.48,1.42h39.37c.41,0,.8-.18,1.09-.47.27-.3.41-.68.38-1.09-1.24-25.82-12.57-46.07-33.61-60.15-.35-.24-.77-.3-1.15-.21-.38.09-.74.32-.94.68l-20.75,34.5c-.41.71-.18,1.59.5,2.01Z"/>
  <path d="M82.88,95.55c0,6.11,3.31,11.8,8.62,14.84,2.57,1.48,5.52,2.27,8.5,2.27s5.52-.68,8-1.98c5.64-2.95,9.12-8.77,9.12-15.14v-.65c-.2-5.73-3.28-10.95-8.17-13.96-5.37-3.28-12.48-3.28-17.85,0-4.9,3.01-7.97,8.23-8.18,13.93,0,.24-.03.44-.03.68Z"/>
</svg>