<?xml version="1.0" encoding="UTF-8"?>
<svg id="Layer_1" data-name="Layer 1" xmlns="http://www.w3.org/2000/svg" viewBox="0 0 200 200">
  <path d="M104.56,102.77c0,3.53,1.27,6.76,3.38,9.26l-9.85,58.85h-25.21v14.85h92.19v-14.85h-25.21l-9.85-58.85c2.11-2.51,3.38-5.73,3.38-9.26,0-7.96-6.45-14.41-14.41-14.41s-14.41,6.45-14.41,14.41ZM113.73,100.33c1.35-2.89,4.79-4.14,7.68-2.79,2.89,1.35,4.14,4.79,2.79,7.68-1.35,2.89-4.79,4.14-7.68,2.79-2.89-1.35-4.14-4.79-2.79-7.68ZM118.97,123.24l7.98,47.63h-15.95l7.97-47.63Z"/>
  <path d="M99.54,93.71c12-25.74,15.65-53.24,12.05-79.43L46.44,154c22.38-14.08,41.1-34.55,53.1-60.29Z"/>
  <path d="M38.28,71.52l33.01,15.39,4.88-10.47-33.01-15.39c-2.89-1.35-6.33-.1-7.68,2.79-1.35,2.89-.1,6.33,2.79,7.68Z"/>
</svg>