<?xml version="1.0" encoding="UTF-8"?>
<svg id="Layer_1" data-name="Layer 1" xmlns="http://www.w3.org/2000/svg" viewBox="0 0 200 200">
  <path d="M20.13,62.74l30.26,11.22-.64.68c-1.39,1.48-.82,3.89,1.08,4.6l42.45,15.73.13,3.61c.03.87.58,1.63,1.38,1.94-3.53,4.49-7.52,8.73-11.63,12.3-.56.49-.62,1.32-.14,1.88,3.41,3.94,5.48,6.32,8.89,10.26.49.56,1.35.63,1.9.13,6.28-5.58,11.92-11.87,16.81-18.7l1.25.46c.25,1.55,1.31,2.88,2.83,3.44l6.8,2.52-2.31,13.29c-.23,1.14.4,2.27,1.49,2.68l5.71,2.12c1.35.5,2.84-.32,3.12-1.74l.66-3.24c.41-2.04.51-4.12.29-6.19l-.27-2.5-.08-3.07c-.07-2.64,2.99-4.13,5.03-2.46l37.58,30.84c1.37.98,3.29.26,3.68-1.37l4.25-17.83c.29-1.23-.43-2.47-1.64-2.82,0,0-35.41-13.78-38.74-16.14l-3.69-2.61-2.94-5.5-75.53-27.99c-1.07-.4-2.27-.11-3.05.71l-.17.18-32.66-12.11c-.88-.33-2.06.68-2.64,2.25-.58,1.57-.34,3.1.54,3.43ZM115.63,104.55c.46-1.23,1.83-1.86,3.06-1.41l4.86,1.8c1.23.46,1.86,1.83,1.41,3.06-.46,1.23-1.83,1.86-3.06,1.41l-4.86-1.8c-1.23-.46-1.86-1.83-1.41-3.06Z"/>
</svg>