<?xml version="1.0" encoding="UTF-8"?>
<svg id="Layer_1" data-name="Layer 1" xmlns="http://www.w3.org/2000/svg" viewBox="0 0 200 200">
  <path d="M25.02,145.6c2.96,2.73,8.16,4.55,14.09,4.55.18,0,.35,0,.53-.01,5.7-.11,10.68-1.89,13.55-4.54,1.45-1.34,3.74-1.34,5.19,0,2.96,2.73,8.16,4.55,14.08,4.55s11.12-1.81,14.09-4.55c1.45-1.34,3.74-1.34,5.19,0,2.96,2.73,8.16,4.55,14.09,4.55s11.12-1.81,14.08-4.55c1.45-1.34,3.74-1.34,5.19,0,2.96,2.73,8.16,4.55,14.08,4.55s11.13-1.81,14.09-4.55c1.45-1.34,3.74-1.34,5.19,0,.39.36.81.7,1.27,1.02,3.06,2.15,7.66,3.53,12.81,3.53,2.1,0,4.1-.24,5.95-.65-2.45-14.34-14.93-25.26-29.96-25.26h-32.57l-7.54-31.81c-.52-2.2-2.49-3.76-4.75-3.76h-10.31v-33.15c0-3.13-2.54-5.67-5.67-5.67s-5.67,2.54-5.67,5.67v33.15h-5.89v-24.9c0-7.68-6.25-13.92-13.92-13.92h-8.14v11.34h8.14c1.43,0,2.59,1.16,2.59,2.59v24.9h-9.68c-2.54,0-4.66,1.95-4.86,4.48l-2.58,31.2c-12.2,1.01-22.35,9.22-26.2,20.38,1.22-.3,2.56-.02,3.53.88Z"/>
</svg>