<?xml version="1.0" encoding="UTF-8"?>
<svg id="Layer_1" data-name="Layer 1" xmlns="http://www.w3.org/2000/svg" viewBox="0 0 200 200">
  <path d="M57.54,130.9h101.94c9.22,0,16.76-7.15,17.42-16.21H40.12c.65,9.06,8.19,16.21,17.42,16.21Z"/>
  <polygon points="73.37 86.22 130.64 86.22 132.16 80.96 157.18 80.4 159.68 69.1 130.14 69.1 81.3 69.1 73.63 69.1 72.08 73.42 13 73.42 13 79.45 69.92 79.45 73.37 86.22"/>
  <path d="M153.54,89.76l-19.89,3.54h-67.81l-31.33,4.33c-3.41.47-5.19,4.3-3.37,7.21l1.73,2.75h150.27l3.86-17.84h-33.45Z"/>
</svg>