<?xml version="1.0" encoding="UTF-8"?>
<svg id="Layer_1" data-name="Layer 1" xmlns="http://www.w3.org/2000/svg" viewBox="0 0 200 200">
  <path d="M72.19,90.05h63.16c0-13.68-11.09-24.77-24.77-24.77h-13.62c-7.54,0-14.29,3.37-18.83,8.69H18.73v7.39h55.03c-1.01,2.7-1.57,5.63-1.57,8.69Z"/>
  <path d="M44.38,114.61v2.63c0,9.65,7.83,17.48,17.48,17.48h101.94c9.65,0,17.48-7.83,17.48-17.48v-2.63c0-9.65-7.83-17.48-17.48-17.48H61.86c-9.65,0-17.48,7.83-17.48,17.48ZM162.57,105.13c5.97,0,10.8,4.84,10.8,10.8s-4.84,10.8-10.8,10.8-10.8-4.84-10.8-10.8,4.84-10.8,10.8-10.8ZM129.24,105.13c5.97,0,10.8,4.84,10.8,10.8s-4.84,10.8-10.8,10.8-10.8-4.84-10.8-10.8,4.84-10.8,10.8-10.8ZM95.91,105.13c5.97,0,10.8,4.84,10.8,10.8s-4.84,10.8-10.8,10.8-10.8-4.84-10.8-10.8,4.84-10.8,10.8-10.8ZM73.39,115.93c0,5.97-4.84,10.8-10.8,10.8s-10.8-4.84-10.8-10.8,4.84-10.8,10.8-10.8,10.8,4.84,10.8,10.8Z"/>
</svg>