<?xml version="1.0" encoding="UTF-8"?>
<svg id="Layer_1" data-name="Layer 1" xmlns="http://www.w3.org/2000/svg" viewBox="0 0 200 200">
  <path d="M36.63,108.34H12.57l5.66,3.43c3.98,2.42,6.79,6.36,7.78,10.91.05,0,.1,0,.15,0,2.01,0,3.77-.62,4.78-1.54.49-.45,1.27-.45,1.76,0,1,.93,2.77,1.54,4.78,1.54s3.77-.62,4.78-1.54c.49-.45,1.27-.45,1.76,0,1,.93,2.77,1.54,4.78,1.54s3.77-.62,4.78-1.54c.49-.45,1.27-.45,1.76,0,1,.93,2.77,1.54,4.78,1.54s3.77-.62,4.78-1.54c.49-.45,1.27-.45,1.76,0,1,.93,2.77,1.54,4.78,1.54s3.77-.62,4.78-1.54c.49-.45,1.27-.45,1.76,0,1,.93,2.77,1.54,4.78,1.54s3.77-.62,4.78-1.54c.49-.45,1.27-.45,1.76,0,1,.93,2.77,1.54,4.78,1.54s3.77-.62,4.78-1.54c.49-.45,1.27-.45,1.76,0,1,.93,2.77,1.54,4.78,1.54s3.77-.62,4.78-1.54c.49-.45,1.27-.45,1.76,0,1,.93,2.77,1.54,4.78,1.54s3.77-.62,4.78-1.54c.49-.45,1.27-.45,1.76,0,1,.93,2.77,1.54,4.78,1.54s3.77-.62,4.78-1.54c.49-.45,1.27-.45,1.76,0,1,.93,2.77,1.54,4.78,1.54s3.77-.62,4.78-1.54c.49-.45,1.27-.45,1.76,0,1,.93,2.77,1.54,4.78,1.54s3.77-.62,4.78-1.54c.49-.45,1.27-.45,1.76,0,1,.93,2.77,1.54,4.78,1.54s3.77-.62,4.78-1.54c.49-.45,1.27-.45,1.76,0,1,.93,2.77,1.54,4.78,1.54s3.77-.62,4.78-1.54c.49-.45,1.27-.45,1.76,0,1,.93,2.77,1.54,4.78,1.54.21,0,.43-.01.63-.02l2.16-5.99h-28.27c-2.72,0-5.03-1.97-5.47-4.66l-.36-3.83h-12.64l-.92-2.69v-3.76c0-.88-.72-1.6-1.6-1.6s-1.6.72-1.6,1.6v2.74l-.78-.19v-4.14c0-.88-.72-1.6-1.6-1.6s-1.6.72-1.6,1.6v3.34l-1.53-.38-1.7-10.02h-10.28l-2.11,18.18h-3.26l-1.9-5.94h-2.27v-12.24h-10.09l-3.45,12.24h-2.32l-1.8-9.82,2.13-7.39h1.94v-2.37h-1.25l1.92-6.66c.19-.68-.13-1.42-.78-1.68-.75-.3-1.57.12-1.79.88l-.6,2.08h-4.21v2.37h3.53l-.86,3h-4.85v2.37h4.17l-1.43,4.98h-12.87l-2.94,5.22,2.45,3.1-1.68,3.91-5.32,2.63-1.81,3.12c-.2.66-.81,1.11-1.5,1.11h-.51l-10.6-1.41-1.6-6.48c-.2-.83-.95-1.41-1.8-1.41h-7.16c-.91,0-1.68.66-1.83,1.56l-12.12-2.79-.37,1.59,12.23,2.81-.48,2.97-5.27-.7Z"/>
</svg>