<?xml version="1.0" encoding="UTF-8"?>
<svg id="Layer_1" data-name="Layer 1" xmlns="http://www.w3.org/2000/svg" viewBox="0 0 200 200">
  <path d="M53.8,165.85c1.45-1.34,3.74-1.34,5.19,0,2.96,2.73,8.16,4.55,14.08,4.55s11.12-1.81,14.09-4.55c1.45-1.34,3.74-1.34,5.19,0,2.96,2.73,8.16,4.55,14.09,4.55s11.12-1.81,14.08-4.55c1.45-1.34,3.74-1.34,5.19,0,2.96,2.73,8.16,4.55,14.08,4.55s11.13-1.81,14.09-4.55c1.45-1.34,3.74-1.34,5.19,0,.39.36.81.7,1.27,1.02l7.19-41.63-13.06-3.15-53.43-12.9-55.56,13-13.04,3.05,7.79,45.15c5.7-.11,10.68-1.89,13.55-4.54Z"/>
  <path d="M101.09,101.44l16.04,3.87,35.91,8.67-2.86-15.93h-19.65l-7.01-22.82h-19.73v-10.94h22.21v-7.53h-22.21v-8.99h12.6v-7.53h-12.6v-10.65h-7.53v10.65h-12.6v7.53h12.6v8.99h-22.21v7.53h22.21v10.94h-19.73l-7.01,22.82h-19.65l-2.89,16.05,37.59-8.8,16.55-3.87ZM81.98,82.31h36.05v7.53h-36.05v-7.53Z"/>
</svg>